<?xml version="1.0" encoding="UTF-8" standalone="no"?>
<svg xmlns:xlink="http://www.w3.org/1999/xlink" height="26.2px" width="26.2px" xmlns="http://www.w3.org/2000/svg">
  <g transform="matrix(1.0, 0.0, 0.0, 1.0, 13.1, 13.1)">
    <path d="M0.4 -11.95 L0.4 -11.8 0.55 -9.95 0.65 -9.95 1.8 -8.95 1.95 -8.95 Q2.65 -8.75 3.3 -8.05 L3.4 -8.0 4.6 -7.65 4.75 -7.65 Q5.8 -8.25 5.25 -7.4 L5.3 -7.3 Q5.85 -6.6 6.8 -6.2 L6.8 -6.25 Q8.1 -6.65 7.3 -5.95 L7.45 -5.95 8.75 -5.8 8.75 -5.7 Q8.95 -3.65 12.1 -4.55 L12.2 -4.55 12.25 -9.3 12.2 -9.4 Q12.0 -9.6 11.3 -8.95 11.95 -9.6 12.35 -11.15 12.3 -12.0 11.45 -12.15 L6.55 -12.85 Q2.65 -13.25 0.4 -11.95 M5.9 -10.1 Q7.1 -10.65 6.2 -9.7 L6.0 -9.95 5.9 -10.1 M9.4 -0.1 L9.25 -0.15 7.95 -0.1 7.8 -0.15 Q5.6 -0.45 4.3 1.3 L4.3 1.45 Q4.45 2.8 4.75 4.0 L4.75 4.05 5.45 4.95 5.6 4.95 Q9.5 4.9 12.1 3.95 L12.1 3.8 Q12.8 2.45 11.9 1.6 L11.9 1.5 Q11.35 2.4 10.45 2.9 L10.45 2.75 Q10.85 1.75 11.7 1.15 L11.7 1.1 10.65 0.15 10.65 0.0 9.4 -0.1 M0.8 -1.25 L0.8 -1.35 Q-1.25 -1.35 -4.1 -0.1 L-4.1 -0.05 -1.1 0.4 -1.1 0.35 Q-0.2 0.15 -0.35 -0.35 L0.8 -1.25 M0.95 -7.5 L0.95 -7.4 Q1.45 -3.9 2.1 -0.5 L2.25 -0.5 8.85 -0.9 8.9 -1.0 10.15 -1.15 10.2 -1.25 10.65 -1.7 10.75 -1.7 Q10.6 -2.05 11.25 -2.5 L11.2 -2.55 Q9.35 -4.0 7.3 -4.55 L7.3 -4.4 Q7.15 -3.7 6.0 -3.35 L5.9 -3.35 5.25 -3.5 5.25 -3.4 Q4.45 -3.35 4.2 -2.85 L4.15 -2.7 Q3.85 -1.25 3.8 -2.2 L3.85 -2.3 Q4.3 -3.9 6.15 -4.1 L6.2 -4.25 Q6.65 -4.85 7.05 -4.7 7.35 -5.05 6.7 -5.5 4.85 -6.85 3.8 -5.95 L3.7 -5.95 Q2.6 -5.65 3.7 -6.75 L3.65 -6.85 Q2.6 -8.35 0.95 -7.5 M11.25 -9.7 Q10.75 -8.25 9.65 -8.1 L9.65 -8.15 11.25 -9.8 11.25 -9.7 M0.1 2.75 L0.2 2.7 -0.95 1.35 -1.05 1.3 -2.8 1.15 -2.95 1.15 Q-3.65 2.1 -4.55 2.2 L-4.65 2.25 Q-4.45 1.4 -3.65 1.1 L-3.6 1.05 Q-7.45 -0.55 -10.5 1.1 L-10.5 1.15 -10.45 1.2 Q-10.2 1.85 -10.75 1.3 L-10.85 1.35 -11.8 1.7 -11.85 1.8 -12.45 2.6 -12.45 2.7 Q-12.5 3.3 -12.7 3.8 -12.45 7.95 -12.5 11.85 L-12.45 11.85 Q-8.9 12.35 -5.8 11.3 L-5.65 11.3 Q-5.45 11.95 -4.4 11.65 L-4.4 11.55 Q-4.0 11.9 -3.25 12.0 L-3.1 12.0 Q-1.5 9.8 -1.65 7.15 L-1.65 7.0 Q-0.45 6.3 -0.15 4.75 L-0.1 4.7 Q-0.3 3.4 0.1 2.75 M3.7 1.45 L3.65 1.35 Q3.1 1.1 2.9 0.5 L2.75 0.5 Q0.7 -0.5 0.55 1.05 L0.55 1.15 0.8 4.3 0.75 4.3 Q0.55 4.75 0.7 5.35 L0.7 5.4 2.1 5.45 2.1 5.4 3.7 4.95 3.7 4.8 Q4.05 4.3 3.55 4.3 L3.45 4.3 3.4 3.35 3.4 3.3 Q4.1 2.7 3.7 1.45 M10.95 5.35 L10.8 5.35 4.45 5.55 4.3 5.6 Q2.05 6.0 -0.25 6.9 L-0.25 7.0 -0.1 8.7 0.0 8.7 Q0.9 8.0 0.7 9.0 L0.55 9.05 Q-0.45 9.9 0.7 11.85 L0.8 11.85 4.6 11.7 Q6.4 11.95 8.55 11.05 10.5 10.2 11.7 10.3 L11.75 10.15 Q12.75 7.85 12.35 5.7 L12.25 5.7 10.95 5.35 M11.45 -1.15 L11.45 -1.05 12.35 0.65 12.45 0.65 Q12.85 -2.5 11.45 -1.15 M13.1 13.05 L-12.8 13.05 -13.1 13.05 -13.1 -12.8 -13.1 -13.1 13.1 -13.1 13.1 13.05 M-0.45 -11.8 Q-0.7 -12.0 -1.05 -12.05 L-11.0 -12.7 -11.05 -12.65 Q-12.5 -12.4 -12.6 -10.9 L-12.6 -10.75 -12.3 -5.45 -12.25 -5.45 Q-12.05 -4.8 -11.65 -4.7 L-11.65 -4.55 Q-11.75 -3.0 -10.6 -1.4 L-10.5 -1.4 Q-6.0 0.05 -1.55 -2.05 L-1.45 -2.05 Q-1.1 -3.05 -0.6 -2.55 L-0.55 -2.55 Q0.25 -7.1 -0.45 -11.8 M-10.6 -6.35 Q-9.85 -7.25 -8.95 -7.2 L-8.95 -7.1 Q-9.35 -6.25 -10.6 -6.25 L-10.6 -6.35 M-12.7 -3.75 L-12.7 -3.6 -12.6 0.5 -12.6 0.6 Q-11.3 0.75 -10.9 0.0 L-10.8 0.0 Q-11.45 -2.2 -12.7 -3.75 M-8.05 -9.95 Q-6.9 -10.0 -6.75 -9.7 L-6.75 -9.6 Q-7.25 -9.3 -8.0 -9.85 L-8.05 -9.95 M-6.45 -4.25 L-6.3 -4.25 Q-6.7 -3.4 -7.75 -3.3 L-7.75 -3.35 Q-7.25 -4.3 -6.45 -4.25 M-4.55 2.6 Q-3.9 2.3 -3.65 3.0 L-3.6 3.15 -4.8 4.0 -4.9 4.0 -6.95 4.1 -6.95 4.0 -4.75 2.95 -4.75 3.0 Q-4.65 3.85 -4.55 2.7 L-4.55 2.6 M-6.45 10.35 L-6.45 10.3 -6.0 9.75 -5.95 9.65 Q-4.8 8.9 -4.0 9.15 L-4.0 9.2 Q-4.4 9.75 -5.3 9.75 L-5.45 9.75 Q-5.8 10.55 -6.45 10.35 M-9.55 9.25 L-9.45 9.2 Q-9.65 10.75 -10.5 10.35 L-10.5 10.3 Q-10.2 9.6 -9.55 9.25" fill="#000000" fill-opacity="0.49803922" fill-rule="evenodd" stroke="none"/>
  </g>
</svg>
