<?xml version="1.0" encoding="UTF-8" standalone="no"?>
<svg xmlns:xlink="http://www.w3.org/1999/xlink" height="22.9px" width="26.1px" xmlns="http://www.w3.org/2000/svg">
  <g transform="matrix(1.0, 0.0, 0.0, 1.0, -6.5, -9.05)">
    <path d="M24.9 10.15 L22.4 9.7 19.55 9.5 15.4 9.85 14.25 10.1 14.2 10.15 15.6 10.5 19.55 10.75 22.4 10.6 24.9 10.15 M23.45 11.45 L23.4 14.85 23.4 18.3 Q23.35 22.7 20.0 23.75 22.6 23.65 23.5 21.15 24.0 19.6 24.0 16.35 L24.2 13.4 Q24.5 11.95 25.4 10.65 L23.7 11.05 Q23.4 11.1 23.45 11.45 M28.15 9.55 L28.9 9.55 29.35 10.3 Q30.9 10.75 31.6 11.3 32.6 12.15 32.6 13.5 32.6 15.65 30.7 16.7 L27.15 17.85 Q25.25 18.3 25.25 19.3 25.25 20.5 26.6 20.55 27.45 20.55 27.45 19.5 28.05 19.5 28.1 20.45 28.05 21.15 27.35 21.55 L26.0 21.85 24.7 21.45 Q24.35 23.95 21.05 24.95 L21.05 25.5 21.45 25.5 21.45 25.9 22.15 25.9 22.35 26.2 22.15 26.7 21.45 26.7 21.45 27.05 21.05 27.05 21.05 27.6 21.25 29.4 22.2 29.5 Q22.75 29.65 22.75 30.05 23.95 30.0 23.95 31.4 L23.0 31.7 19.5 31.95 16.15 31.7 15.15 31.4 Q15.15 30.0 16.35 30.05 16.35 29.65 16.95 29.5 L17.85 29.4 18.05 27.7 18.05 27.05 17.65 27.05 17.65 26.7 17.0 26.7 16.8 26.2 Q16.75 26.0 17.0 25.9 L17.7 25.9 17.7 25.5 18.05 25.5 18.05 24.95 Q14.75 24.0 14.45 21.45 L13.1 21.85 11.8 21.55 Q11.05 21.15 11.1 20.45 11.05 19.5 11.65 19.5 11.6 20.55 12.55 20.55 13.85 20.5 13.85 19.3 13.85 18.3 11.95 17.85 L8.4 16.7 Q6.5 15.65 6.5 13.5 6.5 12.15 7.45 11.3 8.15 10.75 9.75 10.3 L10.2 9.55 10.95 9.55 Q11.1 10.55 12.85 10.55 L12.85 10.2 Q14.0 9.0 19.55 9.05 25.05 9.0 26.25 10.2 L26.3 10.55 26.6 10.55 Q28.05 10.5 28.15 9.55 M26.35 13.5 L25.65 12.25 Q25.15 14.4 24.9 17.15 25.45 16.65 27.1 16.05 L29.4 15.0 Q30.5 14.2 30.55 13.0 30.5 11.3 28.65 11.3 26.7 11.3 26.9 13.25 L26.35 13.5 M31.55 13.45 Q31.5 12.25 30.8 11.9 L31.0 13.15 Q30.95 14.45 29.25 15.7 30.0 15.7 30.8 14.95 31.5 14.2 31.55 13.45 M16.0 11.1 L13.75 10.65 Q14.6 11.95 14.85 13.4 L15.05 16.35 Q15.05 19.6 15.6 21.15 16.5 23.65 19.1 23.75 17.7 23.3 16.95 21.5 16.3 20.0 16.3 18.3 L16.3 11.45 16.0 11.1 M16.5 11.25 L16.75 13.25 16.7 14.5 16.65 15.8 Q16.65 22.8 19.2 23.15 17.1 22.05 17.1 17.05 L17.2 14.2 17.3 11.35 16.5 11.25 M7.2 12.15 Q6.85 12.75 6.85 13.55 6.85 14.5 7.5 15.3 8.15 16.05 9.1 16.45 7.3 15.55 7.3 13.5 7.3 12.2 8.4 11.3 7.6 11.45 7.2 12.15 M9.65 15.0 L12.0 16.05 Q13.6 16.65 14.2 17.15 L13.5 12.25 12.8 13.5 12.25 13.25 12.3 12.95 Q12.3 11.3 10.45 11.3 8.6 11.3 8.6 13.0 8.55 14.2 9.65 15.0 M15.85 30.75 L19.5 31.15 23.25 30.75 22.95 30.75 21.25 30.8 19.5 30.8 17.7 30.8 15.85 30.75" fill="#ffffff" fill-rule="evenodd" stroke="none"/>
  </g>
</svg>
