<?xml version="1.0" encoding="UTF-8" standalone="no"?>
<svg xmlns:xlink="http://www.w3.org/1999/xlink" height="335.5px" width="179.3px" xmlns="http://www.w3.org/2000/svg">
  <g transform="matrix(1.0, 0.0, 0.0, 1.0, -1.75, -3.7)">
    <path d="M31.75 85.0 Q31.35 76.7 32.65 67.8 L32.7 67.4 Q28.55 65.0 25.45 68.45 24.45 69.5 23.75 70.8 18.25 68.55 15.4 73.65 13.85 76.35 11.0 76.5 L8.85 71.8 9.85 68.7 Q7.4 70.55 4.45 71.0 2.35 70.85 1.75 68.8 L8.7 59.25 Q24.15 54.3 40.75 53.8 51.4 62.25 64.75 64.8 L79.75 55.3 80.65 56.3 Q81.65 34.5 92.25 16.45 93.95 13.55 97.35 12.1 105.7 8.65 114.75 9.8 L115.8 12.05 114.85 13.4 114.7 14.25 110.75 18.8 Q117.35 31.65 117.25 45.75 118.15 46.05 118.25 47.25 118.4 48.5 119.6 49.25 120.55 49.75 121.75 49.8 132.0 41.8 139.15 49.55 140.5 50.95 139.85 52.95 L138.75 56.8 137.75 56.8 138.2 63.65 Q141.75 45.9 148.75 28.8 155.3 19.45 157.75 7.95 171.85 -2.8 180.2 13.55 L181.05 16.0 180.6 16.9 Q180.1 17.65 178.85 17.8 L176.75 17.8 176.75 18.8 Q173.55 19.6 170.8 18.05 169.1 17.1 167.75 15.8 164.0 17.05 162.65 20.55 L161.55 22.15 159.45 14.2 158.15 14.55 Q156.4 19.05 159.05 23.25 159.75 24.4 161.3 24.75 L163.8 39.85 164.75 31.8 Q166.65 35.85 166.25 40.55 165.9 44.7 168.85 46.85 171.9 44.95 172.1 41.25 172.3 38.0 173.2 35.75 L173.45 35.5 173.85 34.9 174.0 33.5 173.75 31.8 175.3 30.85 Q177.7 40.05 173.75 48.8 175.55 63.9 175.75 79.05 L163.6 90.2 164.75 77.3 Q162.75 80.8 162.25 84.6 161.75 88.3 161.55 92.05 L153.75 99.2 Q154.75 91.9 153.25 84.8 L152.75 82.8 152.75 90.8 151.75 90.8 Q150.9 101.1 149.15 111.15 L149.1 111.55 148.85 112.95 148.75 113.4 Q145.65 130.4 139.2 146.35 127.15 175.9 124.75 207.8 L126.05 209.15 126.4 212.95 Q127.6 229.6 123.05 245.8 L88.75 253.0 Q86.3 232.45 77.2 213.9 72.55 204.45 70.45 194.15 66.15 172.7 69.4 151.3 72.65 130.15 74.3 108.55 75.2 96.75 71.75 85.8 L71.55 109.3 69.35 107.95 68.75 105.8 68.65 107.5 66.75 106.35 Q65.95 98.65 65.45 90.9 65.1 86.1 62.75 81.8 L64.45 104.95 31.75 85.0 M91.75 34.8 L90.8 34.95 Q89.75 35.3 88.75 35.8 88.2 44.7 94.55 41.4 94.75 41.3 94.75 40.8 L95.3 40.65 Q97.7 33.35 91.75 33.8 L91.75 34.8 M101.7 36.85 Q101.9 40.55 107.5 37.8 113.1 35.05 103.75 31.8 101.5 33.15 101.7 36.85 M110.75 67.8 L110.75 68.8 Q106.1 75.7 97.75 76.8 107.85 80.05 111.75 69.8 L112.35 69.6 114.75 63.2 110.75 67.8 M94.85 60.75 Q103.2 73.4 104.7 59.05 105.95 47.5 94.75 51.8 L94.85 60.75 M117.65 90.35 Q118.65 86.55 118.75 82.8 L112.75 97.8 Q116.2 96.05 117.65 90.35 M127.35 50.85 L111.75 82.8 Q124.15 70.35 127.55 50.8 L127.35 50.85 M133.0 66.1 L134.9 51.2 Q129.5 57.4 132.55 64.95 L133.0 66.1 M130.45 65.8 Q130.75 61.8 129.1 58.65 128.05 56.75 126.75 66.8 125.9 76.15 128.55 81.9 L128.75 82.8 128.5 83.55 127.75 83.8 Q128.0 92.25 130.75 87.8 133.2 86.8 130.75 84.8 129.8 74.35 130.45 65.8 M147.5 90.25 L146.75 83.8 Q147.75 76.75 145.75 69.8 143.6 80.75 147.5 90.25 M74.75 150.8 Q74.15 157.9 74.35 157.35 77.5 147.9 74.75 150.8 M77.75 163.8 L77.75 171.8 76.75 171.8 Q76.15 192.2 85.75 210.0 L87.3 212.7 Q78.85 188.25 79.35 162.35 L77.75 163.8 M137.35 130.6 Q142.8 117.25 143.75 102.8 L136.9 128.85 129.5 142.0 129.8 142.15 130.55 142.0 Q137.5 138.75 136.75 130.8 L137.35 130.6 M94.3 233.2 Q96.5 223.15 92.75 213.8 92.05 224.65 93.9 235.1 L94.3 233.2 M112.75 236.3 L117.75 227.3 117.2 227.75 Q113.35 231.25 112.75 236.3 M108.75 247.8 Q111.15 249.55 112.0 241.6 112.1 240.8 108.75 247.8" fill="#ffffff" fill-rule="evenodd" stroke="none"/>
    <path d="M31.75 85.0 L64.45 104.95 65.75 119.8 66.75 106.35 68.65 107.5 69.75 119.8 69.35 107.95 71.55 109.3 68.8 136.8 67.85 135.0 66.9 136.4 Q64.25 124.4 58.75 113.45 51.55 112.75 46.3 117.75 33.55 108.05 30.65 96.0 L30.7 96.05 Q32.75 91.15 31.75 85.0 M36.75 89.8 L36.7 90.8 Q35.7 98.35 38.75 101.8 42.3 104.45 40.0 96.7 L39.75 95.8 Q37.9 97.7 36.75 89.8" fill="url(#gradient0)" fill-rule="evenodd" stroke="none"/>
    <path d="M148.75 113.4 L148.85 112.95 149.1 111.55 149.15 111.15 Q150.4 105.1 153.75 99.2 L161.55 92.05 158.75 98.8 158.75 105.8 157.75 105.8 158.25 113.4 163.6 90.2 175.75 79.05 169.75 109.8 169.15 110.0 Q162.8 121.95 151.75 129.8 150.0 129.75 149.65 128.3 147.65 120.8 148.75 113.4" fill="url(#gradient1)" fill-rule="evenodd" stroke="none"/>
    <path d="M88.75 253.0 L123.05 245.8 Q117.9 265.15 108.35 282.75 98.0 302.0 97.45 323.7 97.25 331.45 95.7 339.2 88.65 332.35 86.05 322.85 78.5 295.25 86.7 267.05 88.65 260.3 88.75 253.0 M101.75 270.8 L101.75 271.8 94.75 284.8 Q101.75 281.15 102.75 271.8 L103.35 271.6 105.6 266.0 101.75 270.8 M111.75 249.8 L98.75 270.8 Q101.35 269.2 104.05 264.95 108.65 257.75 111.75 249.8 M89.75 305.8 Q91.6 307.5 91.9 299.75 91.95 298.15 89.75 305.8" fill="url(#gradient2)" fill-rule="evenodd" stroke="none"/>
  </g>
  <defs>
    <linearGradient gradientTransform="matrix(0.0054, -0.0094, 0.0273, 0.0158, 46.65, 105.4)" gradientUnits="userSpaceOnUse" id="gradient0" spreadMethod="pad" x1="-819.2" x2="819.2">
      <stop offset="0.0" stop-color="#ffffff" stop-opacity="0.0"/>
      <stop offset="1.0" stop-color="#ffffff"/>
    </linearGradient>
    <linearGradient gradientTransform="matrix(-0.0074, -0.0086, 0.0234, -0.0202, 160.65, 106.25)" gradientUnits="userSpaceOnUse" id="gradient1" spreadMethod="pad" x1="-819.2" x2="819.2">
      <stop offset="0.0" stop-color="#ffffff" stop-opacity="0.0"/>
      <stop offset="1.0" stop-color="#ffffff"/>
    </linearGradient>
    <linearGradient gradientTransform="matrix(-0.0092, -0.0406, 0.0556, -0.0126, 103.4, 287.25)" gradientUnits="userSpaceOnUse" id="gradient2" spreadMethod="pad" x1="-819.2" x2="819.2">
      <stop offset="0.0" stop-color="#ffffff" stop-opacity="0.0"/>
      <stop offset="1.0" stop-color="#ffffff"/>
    </linearGradient>
  </defs>
</svg>
