<?xml version="1.0" encoding="UTF-8" standalone="no"?>
<svg xmlns:xlink="http://www.w3.org/1999/xlink" height="7.5px" width="36.2px" xmlns="http://www.w3.org/2000/svg">
  <g transform="matrix(1.0, 0.0, 0.0, 1.0, 17.85, 3.75)">
    <path d="M17.85 0.0 L15.4 3.25 -15.1 3.25 -17.35 0.0 -15.1 -3.25 15.4 -3.25 17.85 0.0" fill="#fe6429" fill-rule="evenodd" stroke="none"/>
    <path d="M-17.35 0.0 L-15.1 -3.25 M15.4 -3.25 L17.85 0.0" fill="none" stroke="#ff5757" stroke-linecap="round" stroke-linejoin="round" stroke-width="1.0"/>
    <path d="M17.85 0.0 L15.4 3.25 -15.1 3.25 -17.35 0.0" fill="none" stroke="#ff0000" stroke-linecap="round" stroke-linejoin="round" stroke-width="1.0"/>
    <path d="M-15.1 -3.25 L15.4 -3.25" fill="none" stroke="#fe875a" stroke-linecap="round" stroke-linejoin="round" stroke-width="1.0"/>
    <path d="M-6.1 -3.15 L6.1 -3.15 6.1 3.2 -6.1 3.2 -6.1 -3.15" fill="#eb4201" fill-rule="evenodd" stroke="none"/>
    <path d="M6.1 -3.15 L6.1 3.2 M-6.1 3.2 L-6.1 -3.15" fill="none" stroke="#fe875a" stroke-linecap="round" stroke-linejoin="round" stroke-width="1.0"/>
    <path d="M6.1 3.2 L-6.1 3.2" fill="none" stroke="#b83301" stroke-linecap="round" stroke-linejoin="round" stroke-width="1.0"/>
    <path d="M-6.1 -3.15 L6.1 -3.15 Z" fill="none" stroke="#fe723d" stroke-linecap="round" stroke-linejoin="round" stroke-width="1.0"/>
  </g>
</svg>
