<?xml version="1.0" encoding="UTF-8" standalone="no"?>
<svg xmlns:xlink="http://www.w3.org/1999/xlink" height="181.65px" width="69.95px" xmlns="http://www.w3.org/2000/svg">
  <g transform="matrix(1.0, 0.0, 0.0, 1.0, -35.05, -46.2)">
    <path d="M88.4 220.1 Q86.15 224.15 85.15 224.2 82.9 224.15 75.8 219.35 L75.1 219.95 73.75 220.55 Q73.2 220.5 72.9 220.05 L72.05 219.55 Q71.3 219.55 69.95 220.25 68.6 220.9 64.8 220.95 58.65 220.9 58.7 210.15 59.45 201.75 64.4 201.8 67.2 201.8 71.45 205.4 75.3 208.55 75.75 210.15 76.25 211.8 80.25 215.05 83.0 217.2 86.4 218.25 88.4 218.85 88.4 220.1 M72.95 183.65 L72.95 183.45 Q72.95 182.5 72.55 182.25 L72.55 182.1 Q72.3 183.05 72.95 183.65 M64.85 171.3 Q65.25 171.7 65.8 171.7 66.3 171.7 66.85 171.3 67.3 170.85 67.85 170.85 72.75 170.85 75.75 178.2 77.8 183.4 77.8 187.05 77.8 189.2 76.55 190.55 75.15 192.1 74.75 195.3 74.6 196.35 74.55 200.35 74.05 203.8 71.3 203.85 70.35 203.8 65.2 200.75 59.9 197.6 59.9 196.8 59.9 194.7 63.55 194.65 L64.2 190.0 Q61.1 183.95 61.1 181.85 60.7 170.85 63.95 170.85 64.45 170.85 64.85 171.3 M40.2 170.9 Q39.5 170.45 39.55 169.7 39.1 167.55 43.6 167.55 L45.65 167.8 57.6 168.45 58.25 169.4 58.25 171.25 58.25 174.85 Q58.25 178.35 57.4 183.1 56.2 189.85 53.95 191.65 54.8 194.35 54.85 197.3 54.85 201.35 52.55 201.4 L51.8 201.2 Q53.8 202.1 53.8 203.75 53.75 204.65 51.75 206.15 L53.5 211.55 Q54.5 214.8 56.05 216.1 57.35 217.1 60.7 221.2 62.45 222.95 67.9 223.8 72.5 224.4 72.55 225.75 L72.65 226.15 Q72.75 226.55 72.35 226.9 71.1 227.85 65.8 227.85 60.15 227.85 56.05 225.95 51.95 223.95 50.65 224.0 49.05 223.95 48.65 224.4 48.4 224.65 48.35 225.35 47.75 226.65 41.75 226.65 35.05 226.65 35.05 224.1 L36.3 220.45 Q35.45 217.35 35.45 216.35 35.45 211.4 37.5 206.5 40.1 200.15 44.4 200.15 L48.65 200.4 Q44.7 199.3 44.2 198.55 43.45 197.4 41.95 196.05 41.15 195.35 41.15 193.85 41.15 187.8 42.8 181.45 41.25 180.8 40.9 179.8 40.75 179.4 40.75 177.9 40.75 176.35 41.1 175.55 L42.15 172.45 40.2 170.9 M51.35 110.75 Q51.35 109.75 51.15 109.55 L51.1 109.35 Q50.9 109.85 51.3 110.75 L51.35 110.75 M51.8 118.2 Q51.4 118.9 50.55 119.05 L51.75 121.15 Q52.7 122.25 58.5 125.95 63.55 129.1 63.95 130.7 L64.05 129.15 Q64.15 128.8 64.4 128.6 62.4 126.5 59.3 124.2 L51.8 118.2 M52.4 88.7 L52.3 88.6 52.2 88.75 52.4 88.7 M60.3 60.25 Q60.15 60.3 59.75 61.4 59.25 62.6 59.25 63.3 59.25 64.3 59.45 63.9 L60.7 63.9 60.5 63.55 60.3 60.25 M64.45 72.95 Q64.8 71.85 66.4 71.85 68.75 71.85 68.85 75.9 68.9 78.0 68.45 80.8 L68.55 81.05 Q70.35 71.85 71.3 71.85 L72.1 72.6 Q72.6 72.25 73.35 72.25 75.35 72.25 75.4 74.2 L75.2 75.35 74.25 76.2 75.4 78.35 Q78.65 84.65 78.65 85.35 L78.45 86.55 Q77.95 87.75 76.6 87.75 L74.75 86.95 74.55 87.35 74.55 89.05 Q74.15 90.55 72.1 90.6 71.25 90.55 69.65 87.55 L69.05 86.45 Q69.3 88.5 70.05 90.4 70.8 92.4 71.9 93.6 L71.7 94.65 Q71.7 95.85 74.95 99.15 L75.4 99.65 Q74.8 100.35 73.35 100.35 72.0 100.35 69.1 97.15 L68.5 97.45 68.65 97.65 Q70.95 99.8 71.9 102.6 L75.45 107.4 76.65 109.3 Q77.4 109.75 77.4 110.85 77.8 111.85 77.8 112.6 L77.1 113.65 Q76.0 123.15 74.55 123.15 72.0 123.15 72.45 116.95 71.0 116.25 68.2 111.95 L64.15 105.7 Q62.4 103.7 59.9 101.95 L62.8 105.55 Q68.75 113.25 71.65 119.1 72.55 120.9 73.7 124.8 75.0 128.05 77.8 129.1 L89.8 133.3 91.2 133.85 92.9 129.9 94.75 125.85 Q94.25 122.7 94.1 117.0 94.3 115.2 95.95 115.05 L95.75 110.65 Q95.75 103.2 97.75 101.85 96.95 100.7 96.95 99.65 96.65 97.1 99.0 97.1 100.5 97.1 102.65 101.85 104.35 105.65 104.7 107.75 L104.7 119.2 104.95 124.3 Q105.1 129.15 104.65 131.55 L103.25 138.05 Q102.35 141.8 102.25 144.4 101.9 150.85 96.0 160.55 90.2 170.0 87.2 170.0 85.15 170.0 85.15 168.0 85.15 167.5 85.65 166.9 L86.15 165.75 85.15 161.7 Q85.15 158.35 87.2 151.8 89.2 145.2 89.25 141.9 L89.35 140.2 Q70.95 139.45 68.0 134.15 L67.8 137.0 Q71.45 137.35 71.9 139.2 72.05 140.25 71.7 142.5 71.9 144.0 73.25 145.65 74.65 147.4 74.95 148.65 75.85 152.05 77.6 155.95 78.6 158.25 78.65 161.7 L78.75 163.85 Q78.65 165.5 77.55 166.7 74.85 169.5 66.35 169.75 L65.0 168.5 Q62.05 166.9 54.0 166.8 50.85 166.8 41.2 164.7 L42.15 161.4 Q42.15 159.1 43.6 135.6 43.6 134.25 43.0 131.95 42.35 129.55 42.4 127.25 42.35 121.6 41.35 120.7 L40.65 120.15 Q40.3 119.8 40.35 118.6 L42.75 115.0 Q39.5 111.9 39.55 110.4 42.65 99.1 46.45 99.15 47.25 99.15 47.75 99.5 48.65 98.3 50.35 98.35 L53.95 99.2 54.7 99.0 52.7 98.1 46.05 95.4 46.4 94.5 46.85 93.9 55.0 93.45 Q61.0 93.45 65.0 95.25 L63.8 93.25 62.55 93.05 50.8 91.35 50.55 91.3 Q49.35 93.0 47.5 93.05 45.25 93.0 45.25 90.85 L47.9 86.9 Q50.5 82.9 50.55 81.0 49.75 76.9 50.0 74.8 50.5 71.0 55.6 71.05 56.25 71.0 57.35 71.9 L58.55 72.7 61.6 72.8 Q63.05 73.05 64.4 74.5 64.35 73.15 64.45 72.95 M66.15 70.55 Q65.2 71.45 61.75 71.45 L61.65 71.45 61.55 71.45 61.4 71.45 61.35 71.45 Q56.8 71.3 54.4 68.85 52.55 67.0 52.55 65.0 52.15 63.1 52.85 62.3 L52.55 61.55 Q61.2 46.15 67.05 46.2 71.3 46.2 73.95 55.35 75.8 61.7 75.8 65.35 75.8 67.5 75.4 68.2 73.85 70.6 68.25 70.65 L66.15 70.55 M62.55 55.95 Q62.9 55.15 63.55 54.95 L63.55 54.8 Q62.35 55.2 62.05 55.95 L61.55 57.4 61.9 57.4 62.55 55.95 M95.75 62.7 Q95.75 65.05 92.1 95.7 91.45 102.15 91.45 109.75 L91.45 120.15 Q91.35 124.75 90.65 126.65 89.8 128.85 87.6 128.9 79.05 128.85 79.05 125.95 79.05 123.8 84.95 123.8 85.3 123.8 85.3 122.8 85.05 110.7 85.25 104.55 85.45 93.9 87.35 85.9 88.1 82.55 90.05 63.35 91.4 49.05 93.7 49.05 95.7 49.0 96.1 50.45 L96.15 52.7 Q96.15 54.5 95.4 55.65 94.65 56.75 94.7 58.05 94.65 58.7 95.75 62.7" fill="#ffffff" fill-rule="evenodd" stroke="none"/>
  </g>
</svg>
