<?xml version="1.0" encoding="UTF-8" standalone="no"?>
<svg xmlns:xlink="http://www.w3.org/1999/xlink" height="68.8px" width="490.6px" xmlns="http://www.w3.org/2000/svg">
  <g transform="matrix(1.0, 0.0, 0.0, 1.0, 1.3, 0.3)">
    <path d="M13.9 8.4 L6.0 8.4 Q0.0 8.4 0.0 14.4 L0.05 61.2 Q0.05 67.2 6.05 67.2 L482.0 67.2 Q488.0 67.2 488.0 61.2 L488.0 7.0 Q488.0 1.0 482.0 1.0 L185.0 1.0" fill="none" stroke="#ff0000" stroke-linecap="square" stroke-linejoin="round" stroke-width="2.0"/>
    <path d="M344.35 23.35 L344.35 24.65 344.85 26.5 Q345.4 28.45 345.4 29.3 345.4 31.25 344.0 32.4 343.5 32.85 342.8 32.9 L342.6 32.9 341.7 32.8 340.9 32.7 340.3 32.8 340.3 33.2 340.6 34.4 341.15 35.35 341.85 36.2 342.6 36.95 343.8 38.2 344.35 39.0 345.4 41.0 Q346.05 42.45 346.05 43.85 L345.95 44.95 345.4 47.95 345.15 48.7 343.8 51.3 343.25 51.9 342.8 52.35 341.65 53.2 340.45 53.8 338.95 54.15 337.0 53.8 335.85 53.45 334.9 52.65 334.0 52.15 Q333.6 52.15 333.15 52.5 L332.6 53.15 332.3 53.6 332.1 53.75 331.8 53.6 331.25 53.15 Q330.75 52.8 330.75 50.45 L330.75 49.8 330.75 49.55 Q329.7 45.25 329.7 44.35 329.7 42.3 331.15 41.3 331.7 40.95 332.3 40.8 L333.1 40.7 Q334.45 40.7 335.5 41.95 L336.35 43.25 336.85 44.15 Q337.35 45.15 337.35 46.15 L337.25 46.85 336.85 47.5 336.75 48.0 336.8 48.4 Q336.9 48.65 337.3 48.65 L338.05 48.5 338.6 48.3 Q339.85 46.95 339.85 45.0 L339.65 43.05 339.4 42.3 338.75 41.2 338.1 40.4 Q337.75 40.1 336.65 40.1 L336.25 40.1 Q334.95 40.1 334.6 39.4 L334.3 37.4 333.65 36.95 333.15 36.65 332.3 35.75 Q330.8 34.05 330.6 32.8 L330.55 32.5 330.0 30.65 329.95 29.5 329.9 29.0 329.9 28.75 330.15 26.6 Q330.3 24.85 332.3 22.45 L332.35 22.4 333.0 21.8 333.95 21.15 Q334.25 20.9 335.4 20.5 336.0 20.15 336.95 20.15 L337.4 20.15 337.5 20.15 339.0 20.5 341.15 21.15 342.0 21.35 342.8 21.2 342.9 21.15 343.2 21.1 343.65 21.3 344.35 22.4 344.4 22.75 344.35 23.35 M325.65 23.55 Q326.35 24.05 327.25 26.0 L327.75 27.25 328.05 28.1 328.4 29.2 328.65 29.75 328.75 31.15 328.75 32.15 328.7 33.1 328.9 34.7 329.35 35.95 329.75 37.0 329.35 38.2 329.05 38.65 328.85 38.95 Q328.65 39.25 328.3 41.8 L327.75 44.85 327.35 46.4 325.75 50.25 323.85 52.65 322.9 53.25 Q321.9 53.9 320.65 53.9 319.4 53.9 318.55 53.25 L317.7 52.75 316.8 52.45 316.2 52.65 315.35 53.2 314.7 53.6 313.0 54.1 312.2 53.85 311.6 53.1 311.05 52.65 Q310.45 52.25 310.45 50.15 310.45 49.15 310.8 48.8 L311.3 48.6 311.65 48.65 312.0 48.65 312.1 48.65 Q313.35 48.65 313.4 44.3 L313.35 42.35 313.3 40.65 313.3 38.05 312.6 37.05 Q312.1 36.4 312.1 35.9 312.1 35.3 312.55 34.75 L313.3 34.0 313.3 26.45 Q311.1 25.4 310.8 24.0 L310.7 22.5 Q310.7 21.25 310.85 20.95 311.0 20.7 311.55 20.7 L311.6 20.7 312.1 20.7 312.45 20.7 316.7 21.35 317.7 21.0 Q319.15 20.25 319.95 20.25 L320.65 20.3 320.9 20.35 322.75 20.95 323.75 21.6 325.15 22.9 325.65 23.55 M338.4 27.0 L338.35 26.85 Q338.2 26.5 337.8 26.5 L337.4 26.5 337.15 26.65 336.85 27.0 336.35 28.4 336.35 29.65 336.85 31.25 338.0 32.5 Q338.15 32.7 338.45 32.7 L339.25 32.5 339.65 32.2 339.65 32.05 338.9 31.05 Q338.45 30.4 338.35 29.95 L338.3 29.35 338.4 27.2 338.4 27.0 M305.9 22.65 L306.55 23.55 307.05 24.35 307.65 25.5 308.4 27.4 308.55 28.2 308.15 30.65 307.6 32.25 306.55 33.9 305.45 35.45 305.45 35.9 306.0 36.5 307.05 38.2 307.4 38.8 307.6 39.35 Q308.15 40.65 308.15 42.25 L308.0 44.25 307.95 46.2 308.0 47.6 308.65 48.8 309.85 50.35 Q310.25 51.05 310.25 52.25 310.25 53.4 309.75 53.8 L308.8 54.0 308.55 54.0 307.25 53.65 305.9 53.25 304.9 53.45 303.7 53.9 303.0 53.65 301.85 52.85 301.75 52.85 301.25 53.65 300.4 53.9 300.05 53.9 297.7 53.45 296.75 52.85 296.25 52.75 295.8 52.85 295.05 53.45 Q294.35 54.0 293.1 54.0 291.85 54.0 291.3 53.45 L290.5 52.65 290.15 52.35 Q289.75 51.95 289.75 50.75 289.75 49.1 290.05 48.9 L291.8 48.55 292.35 48.1 292.75 46.95 292.75 37.6 292.2 37.05 Q291.65 36.4 291.65 35.85 291.65 35.35 291.95 34.75 L292.75 33.7 292.75 26.1 Q292.7 25.95 292.45 25.85 L291.85 25.6 291.4 25.15 290.65 24.2 Q290.1 23.55 290.1 21.8 290.1 20.85 290.5 20.55 L291.3 20.4 292.9 20.6 295.9 21.15 Q296.75 21.15 297.3 20.7 L298.95 20.2 300.7 19.9 301.05 19.9 302.25 20.1 303.35 20.6 304.3 21.25 305.25 22.0 305.9 22.65 M286.3 23.55 L286.3 24.2 285.3 24.4 284.15 24.5 284.05 24.75 284.65 29.25 285.5 34.3 286.0 35.35 Q286.3 36.2 286.4 38.75 L286.55 42.5 287.0 46.25 Q287.0 47.0 287.6 48.55 L288.6 49.6 289.2 50.3 Q289.6 50.85 289.6 51.9 289.65 53.2 289.15 53.8 L288.35 54.05 287.3 53.8 286.65 53.6 Q286.25 53.5 285.7 53.2 285.2 52.75 284.35 52.75 283.85 52.75 283.45 53.05 L283.15 53.25 282.95 53.4 282.35 53.75 281.45 54.05 280.5 53.65 280.05 53.35 279.1 52.15 Q278.75 51.6 278.75 50.7 278.75 49.1 279.3 48.75 L279.95 48.6 280.5 48.4 280.55 47.9 280.2 43.95 276.85 43.95 276.45 46.2 276.35 47.35 Q276.35 48.05 276.95 48.8 L278.0 50.05 278.25 51.5 Q278.25 54.05 277.3 54.05 L276.45 53.75 275.1 53.15 274.15 52.85 Q273.85 52.85 273.15 53.2 L271.3 53.8 Q270.55 53.8 269.85 53.2 269.15 52.7 268.95 52.1 268.75 51.8 268.75 50.7 L268.75 50.45 Q268.75 48.4 269.65 48.4 L269.7 48.4 269.75 48.45 270.1 48.5 270.45 48.4 271.0 47.9 271.4 47.3 272.3 44.05 273.55 38.6 273.65 37.6 273.4 37.05 273.0 36.45 272.8 35.5 Q272.8 35.0 273.2 34.7 273.4 34.55 274.35 34.1 L274.55 33.35 275.05 31.05 276.1 24.45 274.85 24.3 Q274.35 23.7 274.35 22.15 274.4 21.15 274.6 20.85 274.85 20.4 275.7 20.4 L275.8 20.4 Q278.05 20.4 279.3 21.05 L280.2 21.3 282.05 20.9 Q283.35 20.4 283.85 20.4 L284.25 20.55 Q285.15 21.25 286.05 22.05 L286.3 23.55 M300.4 25.3 Q299.9 25.5 299.85 25.6 L299.6 26.1 299.6 32.75 300.55 32.75 301.0 32.25 301.3 31.45 301.3 25.6 300.9 25.3 300.4 25.3 M299.4 41.1 L299.45 41.75 Q299.3 43.25 299.3 46.2 L299.4 48.4 Q299.6 49.35 300.55 49.8 L301.05 49.8 301.3 49.5 301.3 40.15 301.1 39.55 Q300.9 39.2 300.35 39.2 L300.0 39.2 299.6 39.4 299.4 40.45 299.4 41.1 M319.75 26.45 L319.75 34.9 320.5 34.9 321.5 33.85 321.6 33.05 321.75 32.25 321.75 30.6 321.75 29.0 321.75 28.6 321.6 26.45 Q321.6 25.7 320.7 25.7 319.75 25.7 319.75 26.45 M320.3 37.1 L319.9 37.7 Q319.75 37.95 319.75 38.7 L319.75 39.45 319.75 48.0 320.0 48.1 Q320.6 48.1 321.05 47.2 L321.6 46.0 321.6 38.05 321.2 37.4 320.8 37.1 320.5 37.05 320.3 37.1 M271.4 24.45 Q271.4 25.45 270.8 25.75 L270.0 25.9 269.45 25.9 268.55 26.05 268.0 26.7 267.3 28.35 267.1 28.8 265.3 33.55 264.75 35.0 264.75 35.8 264.95 36.55 265.1 36.9 264.75 37.9 Q264.35 38.9 264.35 41.6 L264.4 44.3 264.45 46.85 264.45 47.65 Q264.45 48.85 265.25 49.2 266.0 49.6 266.55 50.7 267.05 51.8 267.05 52.75 267.05 53.6 266.65 53.95 L265.7 54.1 Q263.8 54.1 262.75 53.5 261.55 52.9 261.3 52.9 260.85 52.9 259.9 53.6 259.0 54.1 258.0 54.1 257.05 54.1 256.35 53.6 L255.95 53.3 255.3 52.35 254.9 52.2 Q254.75 52.0 254.75 50.95 254.75 49.25 255.0 48.95 L255.95 48.75 256.9 48.65 257.4 48.25 257.5 47.4 257.55 45.7 257.45 40.65 257.25 37.6 257.05 36.95 Q256.75 36.5 256.75 35.75 L256.8 34.55 256.85 33.75 256.6 32.15 254.55 26.05 254.0 25.4 253.05 24.8 252.45 23.95 Q251.6 23.15 251.6 22.25 L252.05 20.5 Q252.2 20.1 253.4 20.1 L255.1 20.35 255.3 20.35 255.5 20.45 256.8 20.8 258.1 20.45 258.8 20.25 259.65 20.2 Q260.5 20.2 261.0 20.5 261.5 20.8 262.1 20.8 L262.15 20.8 264.25 20.2 265.55 20.45 266.25 20.6 267.4 20.45 268.5 20.35 269.6 20.65 Q270.4 21.15 270.9 22.3 271.4 23.45 271.4 24.45 M244.95 20.6 L245.15 20.6 247.9 21.55 248.4 21.55 249.95 21.15 Q250.8 21.15 250.8 22.15 L250.8 22.7 250.65 23.15 250.65 25.45 251.25 27.5 251.4 28.55 251.15 30.1 250.8 31.05 249.95 32.1 Q249.7 32.25 249.3 32.55 L248.35 32.8 Q247.2 32.8 246.35 31.95 L246.0 31.65 245.6 31.15 245.0 29.75 244.6 27.55 Q244.4 26.8 244.2 26.8 L244.15 26.8 244.05 26.85 243.85 27.3 Q243.65 27.9 243.65 31.85 L243.7 32.7 Q243.85 32.9 245.25 33.1 L247.0 33.4 247.3 33.65 247.5 34.25 247.5 34.9 247.0 35.65 Q246.7 35.95 246.7 36.3 L247.0 37.05 247.4 37.6 247.75 38.25 247.75 38.3 Q247.75 38.6 246.65 38.6 L245.45 38.55 244.65 38.55 243.75 38.7 243.6 39.55 243.55 40.6 243.55 46.2 243.55 46.75 243.5 47.25 Q243.5 48.4 244.05 48.4 L244.6 48.2 245.0 47.75 244.85 46.65 244.45 44.55 Q244.45 43.8 244.85 42.8 245.35 41.35 247.1 41.35 248.95 41.35 250.1 42.65 L250.65 43.25 251.15 44.15 Q251.5 45.05 251.5 46.1 L251.15 49.25 251.15 49.35 250.95 51.1 251.0 52.25 Q251.0 53.25 250.6 53.25 L249.7 52.85 249.0 52.65 Q248.35 52.65 247.75 53.0 L246.75 53.6 Q245.95 54.1 244.8 54.1 243.8 54.1 242.9 53.6 L241.95 53.0 240.8 52.5 240.25 52.7 239.5 53.2 238.05 53.85 237.15 54.1 236.35 53.85 235.95 53.55 235.2 52.65 Q234.55 51.95 234.55 50.1 234.55 48.8 235.35 48.8 L235.75 48.8 236.0 48.85 236.6 48.65 Q237.5 48.05 237.5 44.05 L237.45 42.2 237.4 40.6 237.4 38.15 236.7 37.05 Q236.2 36.3 236.2 35.8 236.2 34.8 236.85 34.6 L237.3 34.45 237.4 33.55 237.4 32.95 237.4 32.55 237.4 26.65 Q237.3 26.5 236.95 26.45 L236.6 26.35 235.6 25.4 234.9 24.3 234.9 21.25 Q235.0 20.9 235.65 20.9 L236.0 20.9 236.3 20.95 Q238.35 20.95 240.95 21.7 L241.45 21.55 243.15 20.95 244.95 20.6 M262.3 25.4 L262.0 25.85 261.75 26.45 Q261.75 27.2 262.2 27.2 L262.25 27.15 262.3 27.15 262.85 26.4 262.95 25.95 262.85 25.4 262.3 25.4 M279.4 37.7 Q279.2 37.35 278.55 37.35 L278.4 37.9 278.8 38.2 279.3 38.05 279.5 37.85 279.4 37.7 M226.55 20.05 L227.45 20.25 228.2 20.45 228.7 20.5 229.35 20.5 230.1 20.5 231.25 20.4 Q233.4 20.4 234.15 21.95 234.45 22.4 234.45 23.95 234.45 25.4 234.1 25.7 L233.15 25.9 232.2 26.05 Q231.55 26.65 231.05 28.7 L230.4 31.65 230.2 33.35 230.45 35.35 230.6 36.25 Q230.6 36.75 229.7 38.05 229.2 38.8 228.95 39.9 L227.85 45.65 227.75 46.85 227.85 48.2 228.15 48.5 229.05 48.9 230.05 50.1 Q230.4 50.5 230.4 52.1 230.35 54.05 229.25 54.05 L229.1 54.05 229.0 54.0 Q227.8 54.0 226.55 53.4 L224.7 52.55 Q224.25 52.55 222.95 53.45 221.7 54.05 220.65 54.05 L219.65 53.8 219.05 52.95 218.45 52.05 218.05 51.9 217.95 50.75 Q217.95 48.95 218.2 48.7 218.4 48.45 219.3 48.3 L220.45 47.9 220.6 47.1 220.45 45.7 219.35 39.8 219.15 38.7 218.85 37.55 Q217.35 36.05 217.35 35.3 217.35 34.75 217.95 34.15 L218.1 33.3 Q218.1 31.55 217.25 27.3 217.05 26.25 215.4 24.8 L214.8 23.95 214.55 23.5 214.15 23.15 214.1 22.1 Q214.1 20.4 214.45 20.15 L215.4 20.05 217.45 20.3 218.1 20.5 218.4 20.5 219.2 20.7 220.35 20.4 222.2 20.2 223.95 20.45 224.45 20.9 225.05 21.3 225.65 20.7 Q226.05 20.05 226.45 20.05 L226.55 20.05 M225.4 23.95 L225.15 24.65 224.5 25.4 223.95 25.6 223.6 25.85 223.5 26.65 223.5 27.3 223.55 27.6 223.85 28.6 224.65 31.95 Q224.75 32.6 225.0 32.6 L225.3 32.1 225.45 30.5 225.85 28.9 Q226.4 26.95 226.4 25.2 L226.4 24.65 226.05 24.1 225.4 23.95 M206.75 20.9 Q208.05 20.4 208.55 20.4 L208.95 20.55 210.75 22.05 211.0 23.55 211.0 24.2 210.0 24.4 208.85 24.5 208.75 24.75 209.35 29.25 210.2 34.3 210.7 35.35 Q211.0 36.2 211.1 38.75 L211.25 42.5 211.7 46.25 Q211.7 47.0 212.3 48.55 L213.3 49.6 213.9 50.3 Q214.3 50.85 214.3 51.9 214.35 53.2 213.85 53.8 L213.05 54.05 212.0 53.8 211.35 53.6 210.4 53.2 Q209.9 52.75 209.05 52.75 208.55 52.75 208.15 53.05 L207.85 53.25 207.65 53.4 207.05 53.75 206.15 54.05 205.2 53.65 204.75 53.35 Q204.0 52.55 203.8 52.15 203.45 51.6 203.45 50.7 203.45 49.1 204.0 48.75 L204.65 48.6 205.2 48.4 205.25 47.9 204.9 43.95 201.55 43.95 201.15 46.2 201.05 47.35 Q201.05 48.05 201.65 48.8 L202.7 50.05 202.95 51.5 Q202.95 54.05 202.0 54.05 L201.15 53.75 199.8 53.15 198.85 52.85 Q198.55 52.85 197.85 53.2 196.55 53.8 196.0 53.8 195.25 53.8 194.55 53.2 L193.7 52.25 Q193.7 53.4 193.2 53.8 L192.25 54.0 192.0 54.0 190.7 53.65 189.35 53.25 188.35 53.45 187.15 53.9 186.45 53.65 185.3 52.85 185.2 52.85 184.7 53.65 183.85 53.9 183.5 53.9 Q182.0 53.9 181.15 53.45 L180.2 52.85 179.7 52.75 179.25 52.85 178.5 53.45 Q177.8 54.0 176.55 54.0 175.3 54.0 174.75 53.45 L173.95 52.65 173.6 52.35 Q173.2 51.95 173.2 50.75 173.2 49.1 173.5 48.9 L175.25 48.55 175.8 48.1 176.2 46.95 176.2 37.6 175.65 37.05 Q175.1 36.4 175.1 35.85 175.1 35.35 175.4 34.75 L176.2 33.7 176.2 26.1 175.9 25.85 175.3 25.6 174.85 25.15 174.1 24.2 Q173.55 23.55 173.55 21.8 173.55 20.85 173.95 20.55 L174.75 20.4 176.35 20.6 179.35 21.15 Q180.2 21.15 180.75 20.7 L182.4 20.2 184.15 19.9 184.5 19.9 185.7 20.1 Q185.9 20.1 186.8 20.6 L187.75 21.25 188.7 22.0 189.35 22.65 190.0 23.55 190.5 24.35 191.1 25.5 191.85 27.4 192.0 28.2 191.6 30.65 191.05 32.25 190.0 33.9 188.9 35.45 188.9 35.9 189.45 36.5 190.5 38.2 190.85 38.8 191.05 39.35 Q191.6 40.65 191.6 42.25 L191.45 44.25 191.4 46.2 191.45 47.6 192.1 48.8 193.3 50.35 193.45 50.7 193.45 50.45 Q193.45 48.4 194.35 48.4 L194.4 48.4 194.45 48.45 194.8 48.5 195.15 48.4 195.7 47.9 196.1 47.3 197.0 44.05 198.25 38.6 198.35 37.6 198.1 37.05 197.7 36.45 197.5 35.5 Q197.5 35.0 197.9 34.7 198.1 34.55 199.05 34.1 L199.25 33.35 199.75 31.05 200.8 24.45 199.55 24.3 Q199.05 23.7 199.05 22.15 199.1 21.15 199.3 20.85 199.55 20.4 200.4 20.4 L200.5 20.4 Q202.75 20.4 204.0 21.05 L204.9 21.3 206.75 20.9 M204.0 38.05 L204.2 37.85 204.1 37.7 Q203.9 37.35 203.25 37.35 L203.1 37.9 Q203.1 38.2 203.5 38.2 L204.0 38.05 M164.8 20.95 L165.85 21.55 Q166.1 21.75 166.55 21.75 L167.5 21.45 167.75 21.25 168.55 22.0 169.15 22.8 169.3 23.2 169.15 23.65 169.15 24.9 169.7 27.05 170.1 29.0 Q170.1 29.95 169.7 31.0 L169.2 31.75 168.65 32.35 Q168.0 32.9 167.2 32.9 166.3 32.9 165.45 32.35 L164.55 31.55 Q163.7 30.65 163.3 29.5 L163.1 28.25 163.1 28.1 163.3 27.3 163.5 26.75 163.3 26.25 163.05 26.2 Q162.5 26.2 162.5 26.7 L162.5 29.15 Q162.35 30.4 162.35 32.1 L162.35 33.2 162.5 34.65 162.5 35.25 163.3 34.2 164.1 34.0 166.65 34.45 167.45 34.55 168.35 34.35 Q169.0 34.05 169.9 34.05 L171.5 34.3 171.95 34.65 172.2 34.95 172.8 35.7 173.15 36.1 173.15 39.15 Q172.9 39.5 172.5 39.5 L171.7 39.4 Q171.2 39.4 170.95 39.9 L170.7 41.15 170.7 50.4 170.6 53.4 169.95 53.3 169.55 53.0 168.95 52.4 168.15 52.25 167.4 52.4 166.6 53.0 165.95 53.35 165.3 53.6 163.75 53.8 162.25 53.65 161.1 53.0 160.3 52.5 159.05 51.2 157.4 49.05 Q155.75 46.1 155.5 42.5 L155.3 39.8 154.9 38.15 154.45 37.25 Q154.05 36.65 154.05 36.15 154.05 35.55 154.9 34.9 L155.2 34.65 155.45 33.95 155.45 33.9 155.75 31.75 155.95 30.65 156.2 28.9 Q156.45 27.4 156.8 26.65 157.1 25.55 158.1 24.05 L159.6 22.25 Q160.65 21.15 161.2 20.95 L163.4 20.5 Q164.05 20.5 164.8 20.95 M162.2 42.25 L162.2 43.5 162.2 44.9 162.2 45.9 Q162.2 46.85 162.5 47.4 L162.85 47.65 163.45 47.65 163.8 47.4 164.2 46.75 164.2 45.1 164.25 43.3 164.3 41.75 Q164.3 39.0 163.8 38.4 L163.3 38.15 Q162.2 38.55 162.2 42.25 M183.05 26.1 L183.05 32.75 184.0 32.75 184.45 32.25 184.75 31.45 184.75 25.6 184.35 25.3 183.85 25.3 Q183.35 25.5 183.3 25.6 L183.05 26.1 M182.85 40.45 L182.85 41.1 182.9 41.75 Q182.75 43.25 182.75 46.2 L182.85 48.4 Q183.05 49.35 184.0 49.8 L184.5 49.8 184.75 49.5 184.75 40.15 184.55 39.55 Q184.35 39.2 183.8 39.2 L183.45 39.2 183.05 39.4 182.85 40.45 M121.6 23.35 L121.6 24.65 122.1 26.5 Q122.65 28.45 122.65 29.3 122.65 31.25 121.25 32.4 120.65 32.9 119.85 32.9 L118.95 32.8 118.15 32.7 117.55 32.8 117.55 33.2 117.7 33.95 117.85 34.4 118.4 35.35 119.1 36.2 119.85 36.95 121.05 38.2 121.6 39.0 122.65 41.0 Q123.3 42.45 123.3 43.85 L123.2 44.95 122.65 47.95 122.4 48.7 121.05 51.3 120.5 51.9 118.9 53.2 117.7 53.8 116.2 54.15 114.25 53.8 113.1 53.45 112.15 52.65 111.25 52.15 Q110.85 52.15 110.4 52.5 L109.85 53.15 109.35 53.75 109.05 53.6 108.5 53.15 Q108.0 52.8 108.0 50.45 L108.0 49.8 108.0 49.55 Q106.95 45.25 106.95 44.35 106.95 42.3 108.4 41.3 109.3 40.7 110.35 40.7 111.7 40.7 112.75 41.95 L113.6 43.25 114.1 44.15 Q114.6 45.15 114.6 46.15 L114.5 46.85 114.1 47.5 114.0 48.0 114.05 48.4 Q114.15 48.65 114.55 48.65 L115.3 48.5 115.85 48.3 Q117.1 46.95 117.1 45.0 L116.9 43.05 116.65 42.3 116.0 41.2 115.35 40.4 Q115.0 40.1 113.9 40.1 L113.5 40.1 Q112.2 40.1 111.85 39.4 L111.55 37.4 110.9 36.95 110.4 36.65 Q108.9 35.15 108.25 33.95 L107.85 32.8 107.8 32.5 Q107.4 31.7 107.25 30.65 L107.2 29.5 107.15 29.0 107.15 28.75 107.4 26.6 Q107.55 24.85 109.6 22.4 L110.25 21.8 111.2 21.15 Q111.5 20.9 112.65 20.5 113.25 20.15 114.2 20.15 L114.65 20.15 114.75 20.15 116.25 20.5 118.4 21.15 119.25 21.35 120.15 21.15 120.45 21.1 120.9 21.3 121.6 22.4 121.65 22.75 121.6 23.35 M141.05 22.6 L141.6 23.45 142.1 24.6 Q142.5 25.35 142.55 27.3 142.6 28.85 143.1 28.9 L143.15 28.9 143.9 28.8 144.75 28.65 Q145.75 28.65 146.75 29.35 L147.7 30.05 149.05 32.15 149.4 33.1 149.65 33.95 149.9 35.35 150.2 36.45 150.3 38.8 150.25 40.0 150.05 40.15 149.8 40.15 149.4 40.1 149.05 40.0 148.65 40.2 148.35 40.8 147.6 43.25 146.8 45.15 146.8 45.6 147.4 46.7 149.3 49.15 149.95 49.7 151.0 50.7 151.5 51.3 151.6 52.25 151.4 53.5 150.7 53.95 150.55 53.95 148.9 53.7 146.15 52.7 145.0 53.3 144.4 53.6 143.8 53.35 143.25 52.55 142.5 51.5 Q142.35 51.35 142.25 51.35 L141.85 51.5 140.9 52.1 139.85 52.7 138.45 53.3 136.75 53.65 135.7 53.65 134.4 53.3 133.1 52.85 130.9 51.4 129.95 50.5 128.6 48.7 127.95 47.05 127.6 45.95 Q127.2 44.85 127.2 41.95 L127.2 41.3 127.65 39.75 129.05 36.95 129.6 36.15 130.7 34.65 131.35 33.85 131.5 33.5 131.35 32.9 130.7 31.4 130.45 30.8 130.15 29.5 Q129.8 28.55 129.8 26.3 129.8 25.7 129.95 25.35 L130.55 23.75 131.75 22.1 133.4 20.8 Q134.35 20.1 136.15 20.1 L138.05 20.45 138.65 20.65 Q139.8 21.05 140.55 22.0 L141.05 22.6 M136.9 25.4 L136.1 25.2 135.7 25.4 Q135.45 25.55 135.45 26.15 135.45 27.5 135.8 28.15 135.9 28.35 136.35 28.35 L136.6 28.3 137.0 27.7 137.15 26.65 136.9 25.4 M140.0 35.55 Q141.15 37.0 142.1 38.8 L142.5 39.35 142.85 39.5 Q143.35 39.5 143.45 38.6 L143.6 37.5 143.5 36.95 143.2 36.4 142.45 35.4 141.6 33.95 141.4 33.55 140.9 33.55 140.0 34.8 139.95 35.25 140.0 35.55 M134.25 42.2 L134.05 43.3 Q134.05 44.8 135.05 45.45 L136.0 45.65 137.5 45.45 138.05 45.0 138.1 44.85 Q138.1 44.35 137.05 42.65 135.8 40.65 135.3 40.65 L134.25 42.2 M82.8 20.75 L84.05 20.5 85.4 20.3 Q86.15 20.3 86.55 20.75 L87.05 21.25 87.6 22.0 Q88.1 22.5 88.1 24.2 L87.85 25.25 87.1 25.7 86.4 25.95 86.0 26.15 Q85.8 26.4 85.7 29.2 L85.5 32.7 85.5 34.8 Q85.5 35.25 86.0 36.1 L86.35 37.25 86.0 38.45 85.5 39.6 85.5 42.65 Q85.5 46.5 84.9 48.75 84.55 50.1 83.8 51.3 L82.75 52.55 Q82.1 53.35 80.6 53.8 L78.8 54.1 Q77.7 54.1 76.15 53.5 L74.55 52.7 73.7 52.0 72.05 50.0 Q71.0 48.45 71.0 45.0 L71.2 39.15 71.0 37.8 70.4 37.05 Q69.95 36.4 69.95 35.9 L70.2 35.0 71.1 33.35 71.1 26.3 68.95 24.1 68.9 23.3 Q68.9 20.65 69.25 20.4 L70.1 20.3 73.55 20.9 74.35 20.95 Q75.25 20.95 76.6 20.4 L77.65 20.3 79.45 20.3 82.15 20.7 82.8 20.75 M88.8 20.3 L91.6 20.3 93.15 20.55 94.25 20.85 94.75 20.75 97.5 20.3 99.15 20.6 100.45 22.15 Q100.8 22.55 100.8 23.3 L100.5 24.95 Q100.15 25.75 99.55 25.75 L98.9 25.7 98.8 25.7 Q98.05 25.7 98.05 27.3 L98.05 27.9 98.05 28.55 98.05 34.25 98.4 35.4 98.7 36.2 98.35 37.4 97.8 38.65 97.8 47.75 98.35 48.2 98.45 48.2 Q99.2 47.4 99.2 46.8 L98.75 45.7 Q98.45 45.15 98.45 44.6 98.45 42.5 100.35 41.3 101.05 40.85 101.6 40.85 102.2 40.85 103.0 41.3 L104.05 41.95 104.7 42.55 Q105.3 43.15 105.75 44.4 106.15 45.45 106.15 46.45 L105.55 49.95 105.25 52.25 105.2 52.9 Q105.2 53.3 105.0 53.3 L104.6 53.1 103.8 52.45 103.25 52.3 102.6 52.45 101.8 53.1 101.15 53.4 100.45 53.7 100.1 53.8 99.3 53.95 97.85 53.7 96.5 53.1 95.85 52.45 95.4 52.35 94.2 52.75 92.05 53.5 90.5 53.7 89.85 53.55 89.45 52.75 88.65 51.8 Q88.3 51.45 88.3 49.75 88.3 48.5 88.65 48.2 L89.7 48.2 Q90.45 47.9 90.65 47.55 L91.05 45.9 91.05 43.4 91.1 41.0 91.0 37.55 90.75 36.75 90.5 36.45 Q89.95 36.1 89.95 35.5 L90.35 34.4 91.15 33.45 91.15 25.75 90.75 25.5 Q89.95 25.2 89.05 23.9 88.6 23.25 88.6 21.3 88.6 20.4 88.8 20.3 M115.65 27.0 L115.6 26.85 Q115.45 26.5 115.05 26.5 L114.65 26.5 114.4 26.65 114.1 27.0 113.6 28.4 113.6 29.65 114.1 31.25 115.25 32.5 115.7 32.7 116.5 32.5 116.9 32.2 116.9 32.05 116.15 31.05 Q115.7 30.4 115.6 29.95 L115.55 29.35 115.65 27.2 115.65 27.0 M41.95 20.4 L42.1 20.45 42.6 20.5 44.3 20.9 46.1 20.65 47.3 20.5 48.85 20.75 49.55 21.35 50.1 22.0 Q50.55 22.6 50.55 24.05 L50.35 25.25 Q50.15 25.65 49.7 25.65 L49.25 25.6 48.85 25.6 48.7 25.6 48.1 25.9 Q47.75 26.15 47.75 27.0 L47.8 27.95 47.75 28.9 47.7 30.3 47.65 32.5 Q47.65 34.55 47.9 35.15 L48.3 35.95 48.6 36.55 47.9 37.9 Q47.55 38.55 47.55 41.4 L47.65 45.85 47.65 46.8 Q47.65 47.9 47.95 48.35 L49.3 49.6 50.1 50.55 50.4 51.9 Q50.4 53.0 49.25 53.8 L48.7 53.7 48.4 53.7 46.1 53.2 45.15 52.55 44.6 52.4 Q44.3 52.4 44.25 52.55 L43.3 53.5 42.15 53.8 40.2 53.5 39.85 53.5 39.55 53.45 38.9 53.5 37.6 53.3 36.4 52.55 35.95 52.45 35.55 52.55 34.65 53.2 34.25 53.65 33.65 53.75 33.05 53.8 31.1 53.55 30.15 52.25 29.75 51.75 Q29.4 51.55 29.4 49.2 L29.4 49.05 Q29.4 48.45 30.4 48.4 L31.3 48.35 31.85 47.85 32.2 46.9 32.3 46.0 32.3 45.35 32.35 43.15 32.4 40.9 Q32.4 37.95 31.85 36.9 L31.6 36.6 Q30.95 36.05 30.95 35.5 30.95 35.1 31.3 34.7 L32.3 33.45 32.3 30.4 32.35 29.5 32.35 28.85 Q32.35 26.05 31.7 25.6 L30.75 24.95 30.15 24.2 29.75 22.8 29.6 21.25 29.8 20.55 31.45 20.4 33.95 20.65 35.55 21.0 36.1 20.9 39.3 20.3 40.75 20.3 41.95 20.4 M60.4 20.3 Q62.15 20.3 63.9 21.85 65.3 23.1 66.15 25.0 L67.2 27.5 67.55 28.75 67.9 30.4 68.25 33.7 68.35 33.95 68.35 34.15 68.8 36.2 69.05 36.85 68.65 38.25 68.25 39.15 68.05 40.6 67.45 44.6 67.25 45.95 66.7 47.65 65.65 50.15 64.9 51.4 63.55 52.8 Q61.95 54.05 60.4 54.05 58.85 54.05 57.05 52.8 L56.25 52.0 55.3 50.95 54.2 49.35 Q52.25 46.2 51.7 41.3 51.55 40.05 51.55 37.9 51.55 37.0 50.85 36.5 50.7 36.4 50.7 35.9 L50.9 34.9 51.55 34.5 51.9 33.85 52.15 31.7 52.15 31.5 52.35 30.1 52.6 28.8 Q52.8 27.55 53.25 26.4 L54.2 24.05 Q56.1 20.15 58.8 20.15 L60.4 20.3 M59.35 25.3 L58.8 26.05 Q58.65 26.4 58.65 27.4 L58.65 28.15 58.65 28.9 58.6 31.15 58.6 32.85 Q58.6 34.45 58.85 35.55 L59.2 36.85 58.8 37.9 Q58.45 38.6 58.45 41.2 L58.45 43.25 58.25 45.2 58.25 46.45 Q58.25 47.3 58.65 47.95 59.0 48.6 59.55 48.6 60.2 48.6 60.9 47.3 L61.0 46.65 61.1 45.95 61.2 43.2 61.3 40.45 Q61.3 38.5 61.0 37.6 L60.6 36.95 Q60.0 36.2 60.0 35.75 60.0 35.5 60.3 35.25 L61.3 34.3 61.3 32.45 61.3 30.35 61.45 28.65 Q61.45 26.8 61.05 25.8 60.85 25.3 59.85 25.3 L59.35 25.3 M40.95 25.95 L40.75 25.6 40.15 25.45 39.7 25.5 39.3 25.6 Q39.2 25.7 38.85 26.95 L38.8 28.35 Q38.8 32.05 39.45 32.35 L41.2 32.35 41.2 26.25 40.95 25.95 M41.2 46.75 L41.2 38.8 Q41.2 37.8 40.1 37.8 38.9 37.8 38.9 38.8 L38.9 48.0 39.15 48.5 39.55 48.6 Q40.1 48.6 40.55 48.0 L41.2 46.75 M78.4 25.7 Q77.35 26.5 77.35 26.8 L77.35 34.5 77.9 35.45 Q78.5 36.45 78.5 37.05 L78.25 37.75 77.35 39.1 77.35 46.95 77.7 47.85 78.3 48.25 78.9 48.35 79.3 48.2 80.05 47.3 80.3 46.15 80.45 45.2 80.5 42.95 80.6 40.75 Q80.6 38.45 80.2 37.5 L79.9 37.2 79.35 36.6 79.2 35.95 Q79.2 35.4 80.35 34.2 L80.5 33.3 80.5 32.75 80.45 32.25 80.45 25.7 80.05 25.5 79.55 25.4 78.4 25.7 M22.6 21.75 L23.55 21.45 23.8 21.25 24.6 22.0 25.2 22.8 25.35 23.2 25.2 23.65 25.2 24.9 25.75 27.05 26.15 29.0 Q26.15 29.95 25.75 31.0 L25.25 31.75 24.7 32.35 Q24.05 32.9 23.25 32.9 22.35 32.9 21.5 32.35 L20.6 31.55 Q19.75 30.65 19.35 29.5 L19.15 28.25 19.15 28.1 19.35 27.3 19.55 26.75 19.35 26.25 19.1 26.2 Q18.55 26.2 18.55 26.7 L18.55 29.15 Q18.4 30.4 18.4 32.1 L18.4 33.2 18.55 34.65 18.55 35.25 19.35 34.2 20.15 34.0 22.7 34.45 23.5 34.55 24.4 34.35 25.95 34.05 27.55 34.3 28.0 34.65 28.25 34.95 28.85 35.7 29.2 36.1 29.2 39.15 28.55 39.5 27.75 39.4 Q27.25 39.4 27.0 39.9 L26.75 41.15 26.75 50.4 26.65 53.4 26.0 53.3 25.6 53.0 25.0 52.4 24.2 52.25 23.45 52.4 22.65 53.0 22.0 53.35 21.35 53.6 19.8 53.8 18.3 53.65 17.15 53.0 Q16.15 52.55 15.1 51.2 L13.45 49.05 Q11.8 46.1 11.55 42.5 L11.35 39.8 10.95 38.15 10.5 37.25 Q10.1 36.65 10.1 36.15 10.1 35.55 10.95 34.9 L11.25 34.65 11.5 33.9 11.8 31.75 12.0 30.65 12.25 28.9 12.55 27.55 12.85 26.65 Q13.15 25.55 14.15 24.05 14.55 23.35 15.65 22.25 16.7 21.15 17.25 20.95 L19.45 20.5 Q20.1 20.5 20.85 20.95 L21.9 21.55 22.6 21.75 M19.35 38.15 Q18.25 38.55 18.25 42.25 L18.25 43.5 18.25 44.9 18.25 45.9 Q18.25 46.85 18.55 47.4 L18.9 47.65 19.5 47.65 Q19.7 47.55 19.85 47.4 L20.25 46.75 20.25 45.1 20.3 43.3 20.35 41.75 Q20.35 39.0 19.85 38.4 L19.35 38.15 M20.2 48.45 L20.15 48.55 20.2 48.45" fill="#ff0000" fill-rule="evenodd" stroke="none"/>
    <path d="M168.65 0.45 L168.65 6.25 Q168.65 6.55 169.1 6.65 L169.55 7.1 169.55 9.25 169.1 9.7 167.15 9.7 Q166.7 9.7 166.7 9.25 L166.7 0.45 Q166.7 0.0 167.15 0.0 L168.2 0.0 Q168.65 0.0 168.65 0.45 M173.0 3.5 L173.0 7.4 Q173.0 7.85 173.45 7.85 L175.8 7.85 Q176.25 7.85 176.25 8.3 L176.25 9.25 175.8 9.7 171.95 9.7 Q171.55 9.7 171.3 9.45 L171.05 8.8 171.05 0.9 Q171.05 0.55 171.3 0.25 171.55 0.0 171.95 0.0 L175.8 0.0 Q176.25 0.0 176.25 0.45 L176.25 2.6 175.8 3.05 173.45 3.05 Q173.0 3.05 173.0 3.5 M158.3 3.05 L157.6 3.05 Q157.15 3.05 157.15 3.5 L157.15 9.25 156.7 9.7 155.65 9.7 Q155.2 9.7 155.2 9.25 L155.2 0.9 155.45 0.25 Q155.7 0.0 156.1 0.0 L159.85 0.0 Q160.2 0.0 160.45 0.25 L160.75 0.9 160.75 6.25 Q160.75 6.7 161.2 6.7 L161.9 6.7 162.35 6.25 162.35 0.45 Q162.35 0.0 162.8 0.0 L163.85 0.0 Q164.3 0.0 164.3 0.45 L164.3 6.25 Q164.3 6.55 164.75 6.65 L165.2 7.1 165.2 9.25 164.75 9.7 159.65 9.7 159.0 9.45 158.75 8.8 158.75 3.5 Q158.75 3.05 158.3 3.05 M147.15 0.0 L152.8 0.0 Q153.2 0.0 153.45 0.25 L153.7 0.9 153.7 8.8 153.45 9.45 152.8 9.7 147.15 9.7 146.5 9.45 146.25 8.8 146.25 0.9 146.5 0.25 Q146.75 0.0 147.15 0.0 M148.2 2.3 L148.2 6.25 Q148.2 6.7 148.65 6.7 L151.3 6.7 151.75 6.25 151.75 2.3 Q151.75 1.85 151.3 1.85 L148.65 1.85 Q148.2 1.85 148.2 2.3 M144.75 5.15 L144.75 9.25 144.3 9.7 143.2 9.7 Q142.75 9.7 142.75 9.25 L142.75 6.4 Q142.75 5.95 142.3 5.95 L140.25 5.95 Q139.8 5.95 139.8 6.4 L139.8 9.25 139.35 9.7 137.35 9.7 Q136.9 9.7 136.9 9.25 L136.9 0.9 137.15 0.25 Q137.4 0.0 137.8 0.0 L142.5 0.0 143.1 0.25 143.4 0.9 143.4 3.8 Q143.4 4.25 143.85 4.25 144.2 4.25 144.45 4.55 L144.75 5.15 M135.4 1.4 L134.95 1.85 133.65 1.85 Q133.25 1.85 133.25 2.3 L133.25 9.25 132.8 9.7 131.7 9.7 Q131.25 9.7 131.25 9.25 L131.25 3.5 Q131.25 3.05 130.8 3.05 L129.55 3.05 Q129.1 3.05 129.1 2.6 L129.1 0.45 Q129.1 0.0 129.55 0.0 L134.95 0.0 Q135.4 0.0 135.4 0.45 L135.4 1.4 M138.85 3.65 Q138.85 4.1 139.3 4.1 L141.25 4.1 141.7 3.65 141.7 2.3 Q141.7 1.85 141.25 1.85 L139.3 1.85 Q138.85 1.85 138.85 2.3 L138.85 3.65 M185.2 5.0 L185.2 8.8 184.95 9.45 184.3 9.7 178.2 9.7 Q177.75 9.7 177.75 9.25 L177.75 8.3 Q177.75 7.85 178.2 7.85 L182.8 7.85 183.1 7.7 183.25 7.4 183.25 6.4 Q183.25 5.95 182.8 5.95 L179.7 5.95 Q179.35 5.95 179.1 5.7 L178.8 5.05 178.8 0.9 Q178.8 0.55 179.1 0.25 179.35 0.0 179.7 0.0 L184.75 0.0 Q185.2 0.0 185.2 0.45 L185.2 1.4 184.75 1.85 182.15 1.85 Q181.7 1.85 181.7 2.3 L181.7 3.65 Q181.7 4.1 182.15 4.1 L184.3 4.1 184.95 4.35 185.2 5.0 M88.35 3.3 Q88.35 3.75 88.8 3.75 L93.4 3.75 Q93.85 3.75 93.85 4.2 L93.85 5.15 93.4 5.6 92.05 5.6 Q91.6 5.6 91.6 6.05 L91.6 9.25 91.15 9.7 89.15 9.7 Q88.7 9.7 88.7 9.25 L88.7 6.35 88.45 5.7 Q88.15 5.45 87.8 5.45 L87.3 5.45 Q86.9 5.45 86.65 5.2 L86.4 4.55 86.4 0.9 Q86.4 0.55 86.65 0.25 86.9 0.0 87.3 0.0 L93.4 0.0 Q93.85 0.0 93.85 0.45 L93.85 1.4 93.4 1.85 88.8 1.85 Q88.35 1.85 88.35 2.3 L88.35 3.3 M77.25 0.0 Q77.7 0.0 77.7 0.45 L77.7 6.25 Q77.7 6.7 78.15 6.7 L80.2 6.7 Q80.65 6.7 80.65 7.1 L80.65 9.25 80.2 9.7 76.65 9.7 76.0 9.45 75.75 8.8 75.75 0.45 Q75.75 0.0 76.2 0.0 L77.25 0.0 M73.8 1.85 L72.45 1.85 Q72.0 1.85 72.0 2.3 L72.0 3.65 Q72.0 4.1 72.45 4.1 L73.8 4.1 Q74.25 4.1 74.25 4.55 L74.25 5.5 73.8 5.95 69.2 5.95 Q68.75 5.95 68.75 6.4 L68.75 7.4 Q68.75 7.85 69.2 7.85 L73.8 7.85 Q74.25 7.85 74.25 8.3 L74.25 9.25 73.8 9.7 67.7 9.7 Q67.3 9.7 67.05 9.45 L66.8 8.8 66.8 5.15 67.05 4.55 Q67.3 4.25 67.7 4.25 L68.2 4.25 68.85 4.0 69.1 3.35 69.1 0.9 69.35 0.25 70.0 0.0 73.8 0.0 Q74.25 0.0 74.25 0.45 L74.25 1.4 73.8 1.85 M64.85 1.85 L63.55 1.85 Q63.15 1.85 63.15 2.3 L63.15 9.25 62.7 9.7 61.6 9.7 Q61.15 9.7 61.15 9.25 L61.15 3.5 Q61.15 3.05 60.7 3.05 L59.45 3.05 Q59.0 3.05 59.0 2.6 L59.0 0.45 Q59.0 0.0 59.45 0.0 L64.85 0.0 Q65.3 0.0 65.3 0.45 L65.3 1.4 64.85 1.85 M57.5 1.4 L57.05 1.85 55.75 1.85 Q55.35 1.85 55.35 2.3 L55.35 9.25 54.9 9.7 53.8 9.7 Q53.35 9.7 53.35 9.25 L53.35 3.5 Q53.35 3.05 52.9 3.05 L51.65 3.05 Q51.2 3.05 51.2 2.6 L51.2 0.45 Q51.2 0.0 51.65 0.0 L57.05 0.0 Q57.5 0.0 57.5 0.45 L57.5 1.4 M126.7 0.45 L126.7 6.25 127.15 6.65 127.6 7.1 127.6 9.25 127.15 9.7 125.1 9.7 Q124.65 9.7 124.65 9.25 L124.65 6.4 Q124.65 5.95 124.2 5.95 L123.5 5.95 Q123.05 5.95 123.05 6.4 L123.05 9.25 122.6 9.7 120.6 9.7 Q120.15 9.7 120.15 9.25 L120.15 0.45 Q120.15 0.0 120.6 0.0 L121.65 0.0 Q122.1 0.0 122.1 0.45 L122.1 3.65 Q122.1 4.1 122.55 4.1 L124.5 4.1 124.95 3.65 124.95 0.45 Q124.95 0.0 125.4 0.0 L126.25 0.0 Q126.7 0.0 126.7 0.45 M118.65 0.45 L118.65 1.4 118.2 1.85 115.6 1.85 Q115.15 1.85 115.15 2.3 L115.15 3.65 Q115.15 4.1 115.6 4.1 L117.75 4.1 Q118.15 4.1 118.4 4.35 L118.65 5.0 118.65 8.8 118.4 9.45 117.75 9.7 111.65 9.7 Q111.2 9.7 111.2 9.25 L111.2 8.3 Q111.2 7.85 111.65 7.85 L116.25 7.85 116.55 7.7 116.7 7.4 116.7 6.4 Q116.7 5.95 116.25 5.95 L113.15 5.95 112.55 5.7 Q112.25 5.4 112.25 5.05 L112.25 0.9 Q112.25 0.55 112.55 0.25 112.8 0.0 113.15 0.0 L118.2 0.0 Q118.65 0.0 118.65 0.45 M107.3 1.85 L105.35 1.85 Q104.9 1.85 104.9 2.3 L104.9 3.65 Q104.9 4.1 105.35 4.1 L107.3 4.1 107.75 3.65 107.75 2.3 Q107.75 1.85 107.3 1.85 M105.45 5.1 L103.65 5.1 Q103.2 5.1 103.2 5.55 L103.2 9.25 102.75 9.7 102.2 9.7 Q101.75 9.7 101.75 9.25 L101.75 5.15 102.0 4.5 Q102.25 4.25 102.65 4.25 L102.8 4.25 103.1 4.15 103.2 3.8 103.2 0.9 Q103.2 0.55 103.5 0.25 103.75 0.0 104.1 0.0 L108.8 0.0 109.45 0.25 109.7 0.9 109.7 9.25 109.25 9.7 106.35 9.7 Q105.9 9.7 105.9 9.25 L105.9 5.55 Q105.9 5.1 105.45 5.1 M95.8 0.0 L96.85 0.0 Q97.3 0.0 97.3 0.45 L97.3 6.25 Q97.3 6.7 97.75 6.7 L99.8 6.7 Q100.25 6.7 100.25 7.1 L100.25 9.25 99.8 9.7 96.25 9.7 95.6 9.45 95.35 8.8 95.35 0.45 Q95.35 0.0 95.8 0.0 M46.05 0.45 L46.05 3.65 Q46.05 4.1 46.55 4.1 L47.25 4.1 47.7 3.65 47.7 0.45 Q47.7 0.0 48.15 0.0 L49.25 0.0 Q49.7 0.0 49.7 0.45 L49.7 8.8 49.4 9.45 48.8 9.7 45.25 9.7 Q44.8 9.7 44.8 9.25 L44.8 7.1 Q44.8 6.7 45.25 6.7 L47.25 6.7 Q47.7 6.7 47.7 6.2 47.7 5.75 47.25 5.75 L43.3 5.75 Q42.85 5.75 42.85 6.2 L42.85 9.25 42.4 9.7 41.35 9.7 Q40.9 9.7 40.9 9.25 L40.9 5.0 Q40.9 4.6 41.15 4.35 41.4 4.1 41.8 4.1 L42.3 4.1 42.95 3.85 43.2 3.2 43.2 0.45 Q43.2 0.0 43.65 0.0 L45.65 0.0 Q46.05 0.0 46.05 0.45 M33.9 0.45 L33.9 6.25 Q33.9 6.7 34.35 6.7 L37.0 6.7 37.45 6.25 37.45 0.45 Q37.45 0.0 37.9 0.0 L38.95 0.0 Q39.4 0.0 39.4 0.45 L39.4 8.8 39.15 9.45 38.5 9.7 32.85 9.7 32.2 9.45 31.95 8.8 31.95 0.45 Q31.95 0.0 32.4 0.0 L33.45 0.0 Q33.9 0.0 33.9 0.45 M25.65 2.3 L25.65 3.65 Q25.65 4.1 26.1 4.1 L28.05 4.1 28.5 3.65 28.5 2.3 Q28.5 1.85 28.05 1.85 L26.1 1.85 Q25.65 1.85 25.65 2.3 M24.25 0.25 Q24.5 0.0 24.85 0.0 L29.55 0.0 Q29.9 0.0 30.2 0.25 L30.45 0.9 30.45 9.25 30.0 9.7 27.1 9.7 Q26.65 9.7 26.65 9.25 L26.65 5.55 Q26.65 5.1 26.2 5.1 L24.4 5.1 Q23.95 5.1 23.95 5.55 L23.95 9.25 23.5 9.7 22.95 9.7 Q22.5 9.7 22.5 9.25 L22.5 5.15 22.75 4.5 Q23.0 4.25 23.4 4.25 L23.55 4.25 23.85 4.15 23.95 3.8 23.95 0.9 Q23.95 0.55 24.25 0.25 M16.75 0.0 L20.55 0.0 Q21.0 0.0 21.0 0.45 L21.0 1.4 20.55 1.85 19.2 1.85 Q18.75 1.85 18.75 2.3 L18.75 3.65 Q18.75 4.1 19.2 4.1 L20.55 4.1 Q21.0 4.1 21.0 4.55 L21.0 5.5 20.55 5.95 15.95 5.95 Q15.5 5.95 15.5 6.4 L15.5 9.25 15.05 9.7 14.0 9.7 Q13.55 9.7 13.55 9.25 L13.55 5.15 13.8 4.55 Q14.05 4.25 14.45 4.25 L14.95 4.25 15.6 4.0 15.85 3.35 15.85 0.9 16.1 0.25 Q16.4 0.0 16.75 0.0" fill="#ff0000" fill-rule="evenodd" stroke="none"/>
    <path d="M465.65 39.85 L465.65 47.75 464.6 47.75 464.6 40.5 461.0 47.75 459.8 47.75 456.25 40.5 456.25 47.75 455.2 47.75 455.2 39.85 457.05 39.85 460.4 46.7 463.8 39.85 465.65 39.85 M473.7 43.1 L473.7 44.05 469.2 44.05 469.2 46.75 474.15 46.75 474.15 47.75 468.15 47.75 468.15 39.85 474.0 39.85 474.0 40.75 469.2 40.75 469.2 43.1 473.7 43.1 M391.8 30.4 L394.2 30.4 395.9 30.1 Q396.25 29.85 396.25 29.1 396.25 28.35 395.9 28.1 395.5 27.8 394.2 27.8 L391.8 27.8 391.8 30.4 M395.75 26.95 L396.5 27.25 397.15 27.95 397.4 29.05 Q397.4 30.3 396.7 30.8 396.05 31.3 394.3 31.3 L391.8 31.3 391.8 34.8 390.75 34.8 390.75 26.9 394.25 26.9 395.75 26.95 M379.65 26.9 L383.0 33.75 386.4 26.9 388.25 26.9 388.25 34.8 387.2 34.8 387.2 27.55 383.6 34.8 382.4 34.8 378.85 27.55 378.85 34.8 377.8 34.8 377.8 26.9 379.65 26.9 M381.7 42.9 L380.55 43.55 Q381.45 43.65 381.9 44.15 382.4 44.7 382.4 45.5 L382.2 46.4 381.7 47.1 Q381.35 47.45 380.8 47.6 L379.25 47.75 375.45 47.75 375.45 39.85 379.2 39.85 380.5 39.9 381.25 40.15 381.9 40.8 382.1 41.75 Q382.1 42.45 381.7 42.9 M380.95 41.9 Q380.95 41.2 380.5 40.95 L378.95 40.7 376.5 40.7 376.5 43.1 378.9 43.1 380.45 42.85 Q380.95 42.55 380.95 41.9 M384.15 39.85 L387.05 43.45 389.85 39.85 391.25 39.85 387.6 44.35 387.6 47.75 386.45 47.75 386.45 44.45 382.65 39.85 384.15 39.85 M395.25 40.75 L393.2 40.75 393.2 43.35 395.25 43.35 397.25 43.05 Q397.7 42.8 397.7 42.0 397.7 41.3 397.2 41.05 L395.25 40.75 M397.2 39.9 L398.0 40.2 398.6 40.9 398.8 41.95 Q398.8 42.75 398.4 43.2 L397.05 43.9 Q397.7 43.9 398.0 44.2 398.3 44.5 398.45 45.5 L398.65 46.55 398.85 47.35 399.05 47.75 397.85 47.75 397.7 47.35 397.55 46.65 397.35 45.35 Q397.25 44.75 396.85 44.5 L395.35 44.25 393.2 44.25 393.2 47.75 392.15 47.75 392.15 39.85 395.65 39.85 397.2 39.9 M411.8 27.85 L411.8 34.8 410.7 34.8 410.7 27.85 407.4 27.85 407.4 26.9 415.15 26.9 415.15 27.85 411.8 27.85 M399.95 26.9 L399.95 31.05 400.05 32.4 400.45 33.2 401.3 33.8 402.45 34.05 403.65 33.8 404.5 33.2 404.85 32.4 404.95 31.05 404.95 26.9 406.05 26.9 406.05 31.5 405.9 32.8 405.55 33.65 Q405.1 34.3 404.25 34.6 L402.45 34.95 400.65 34.6 399.4 33.65 399.0 32.8 Q398.85 32.3 398.85 31.5 L398.85 26.9 399.95 26.9 M402.05 39.85 L402.05 47.75 400.95 47.75 400.95 39.85 402.05 39.85 M405.95 39.85 L410.9 46.65 410.9 39.85 411.85 39.85 411.85 47.75 410.55 47.75 405.5 40.9 405.5 47.75 404.5 47.75 404.5 39.85 405.95 39.85 M413.3 40.8 L413.3 39.85 421.05 39.85 421.05 40.8 417.7 40.8 417.7 47.75 416.6 47.75 416.6 40.8 413.3 40.8 M416.6 26.9 L422.45 26.9 422.45 27.8 417.65 27.8 417.65 30.15 422.15 30.15 422.15 31.1 417.65 31.1 417.65 33.8 422.6 33.8 422.6 34.8 416.6 34.8 416.6 26.9 M429.9 29.05 Q429.9 28.35 429.4 28.1 L427.45 27.8 425.4 27.8 425.4 30.4 427.45 30.4 429.45 30.1 Q429.9 29.85 429.9 29.05 M429.4 26.95 L430.2 27.25 430.8 27.95 431.0 29.0 Q431.0 29.8 430.6 30.25 L429.25 30.95 Q429.9 30.95 430.2 31.25 430.5 31.55 430.65 32.55 L430.85 33.6 431.05 34.4 431.25 34.8 430.05 34.8 429.9 34.4 429.75 33.7 429.55 32.4 Q429.45 31.8 429.05 31.55 L427.55 31.3 425.4 31.3 425.4 34.8 424.35 34.8 424.35 26.9 427.85 26.9 429.4 26.95 M423.55 43.05 L428.65 43.05 428.65 39.85 429.75 39.85 429.75 47.75 428.65 47.75 428.65 44.0 423.55 44.0 423.55 47.75 422.5 47.75 422.5 39.85 423.55 39.85 423.55 43.05 M450.05 39.85 L454.05 47.75 452.75 47.75 451.75 45.65 446.85 45.65 445.75 47.75 444.6 47.75 448.7 39.85 450.05 39.85 M442.6 40.3 Q443.45 40.9 443.6 41.9 L442.4 41.9 Q442.25 41.3 441.65 40.95 L440.15 40.65 Q438.55 40.65 437.65 41.5 436.75 42.35 436.75 43.85 436.75 45.3 437.65 46.15 438.55 47.0 440.15 47.0 L441.5 46.85 442.6 46.5 442.6 44.5 440.15 44.5 440.15 43.6 443.65 43.6 443.65 47.05 441.9 47.7 440.05 47.9 Q437.95 47.9 436.75 46.8 435.55 45.7 435.55 43.85 435.55 41.9 436.8 40.8 438.05 39.7 440.25 39.7 441.7 39.7 442.6 40.3 M371.6 27.7 Q370.2 27.7 369.3 28.55 368.4 29.45 368.4 30.85 368.4 32.25 369.3 33.1 370.15 33.95 371.55 33.95 372.95 33.95 373.85 33.1 374.7 32.25 374.7 30.85 374.7 29.45 373.85 28.55 372.95 27.7 371.6 27.7 M368.5 27.85 Q369.1 27.3 369.85 27.0 L371.55 26.75 373.3 27.0 Q374.05 27.3 374.65 27.85 L375.6 29.2 375.9 30.85 375.6 32.5 374.65 33.85 373.3 34.65 371.55 34.9 369.85 34.65 Q369.1 34.4 368.5 33.85 367.85 33.25 367.55 32.5 367.2 31.7 367.2 30.85 367.2 29.95 367.55 29.2 367.85 28.4 368.5 27.85 M362.65 26.75 Q364.2 26.75 365.1 27.35 366.0 27.95 366.05 29.0 L364.85 29.0 Q364.75 28.35 364.15 28.0 363.55 27.65 362.6 27.65 361.2 27.65 360.4 28.5 359.6 29.35 359.6 30.85 359.6 32.4 360.4 33.25 361.2 34.05 362.75 34.05 363.7 34.05 364.25 33.65 364.85 33.25 364.9 32.5 L366.15 32.5 Q366.0 33.7 365.1 34.3 364.2 34.95 362.55 34.95 360.65 34.95 359.5 33.85 358.4 32.75 358.4 30.85 358.4 28.95 359.55 27.85 360.7 26.75 362.65 26.75 M360.15 39.85 L360.15 46.75 364.7 46.75 364.7 47.75 359.05 47.75 359.05 39.85 360.15 39.85 M370.3 39.85 L374.3 47.75 373.0 47.75 372.0 45.65 367.1 45.65 366.0 47.75 364.85 47.75 368.95 39.85 370.3 39.85 M371.55 44.7 L369.6 40.75 367.55 44.7 371.55 44.7 M376.5 46.85 L379.25 46.85 Q380.3 46.85 380.75 46.5 381.2 46.2 381.2 45.45 381.2 44.65 380.75 44.35 380.25 44.0 379.05 44.0 L376.5 44.0 376.5 46.85 M451.3 44.7 L449.35 40.75 447.3 44.7 451.3 44.7" fill="#ff0000" fill-rule="evenodd" stroke="none"/>
  </g>
</svg>
