<?xml version="1.0" encoding="UTF-8" standalone="no"?>
<svg xmlns:xlink="http://www.w3.org/1999/xlink" height="169.05px" width="59.95px" xmlns="http://www.w3.org/2000/svg">
  <g transform="matrix(1.0, 0.0, 0.0, 1.0, 0.5, -0.45)">
    <path d="M14.0 134.05 L30.35 133.85 Q47.85 133.3 53.95 131.25 55.1 136.6 56.65 142.1 57.3 146.45 55.8 155.4 54.9 160.8 50.3 164.45 46.0 167.75 39.85 168.65 33.75 169.6 28.25 167.85 22.35 166.1 19.15 161.9 13.6 154.65 13.3 143.4 13.15 139.9 13.6 136.35 L14.0 134.05" fill="#ff0000" fill-rule="evenodd" stroke="none"/>
    <path d="M14.0 134.05 L30.35 133.85 Q47.85 133.3 53.95 131.25 55.1 136.6 56.65 142.1 57.3 146.45 55.8 155.4 54.9 160.8 50.3 164.45 46.0 167.75 39.85 168.65 33.75 169.6 28.25 167.85 22.35 166.1 19.15 161.9 13.6 154.65 13.3 143.4 13.15 139.9 13.6 136.35 L14.0 134.05 13.6 134.05 M14.0 134.05 L14.05 133.6" fill="none" stroke="#ff0000" stroke-linecap="round" stroke-linejoin="round" stroke-width="1.0"/>
    <path d="M58.9 38.2 Q58.4 56.9 54.65 75.3 50.85 93.65 52.05 102.2 53.2 110.75 54.35 122.05 L16.05 122.75 Q14.5 121.1 12.05 110.05 9.45 98.2 8.15 95.8 4.1 88.25 1.7 75.3 -0.5 63.1 0.15 54.8 0.95 42.5 1.25 40.8 2.85 30.25 7.9 20.9 11.4 14.4 26.25 5.0 34.05 0.05 41.3 1.15 49.1 2.35 53.95 10.45 59.4 19.5 58.9 38.2" fill="#ff0000" fill-rule="evenodd" stroke="none"/>
    <path d="M58.9 38.2 Q58.4 56.9 54.65 75.3 50.85 93.65 52.05 102.2 53.2 110.75 54.35 122.05 L16.05 122.75 Q14.5 121.1 12.05 110.05 9.45 98.2 8.15 95.8 4.1 88.25 1.7 75.3 -0.5 63.1 0.15 54.8 0.95 42.5 1.25 40.8 2.85 30.25 7.9 20.9 11.4 14.4 26.25 5.0 34.05 0.05 41.3 1.15 49.1 2.35 53.95 10.45 59.4 19.5 58.9 38.2 Z" fill="none" stroke="#ff0000" stroke-linecap="round" stroke-linejoin="round" stroke-width="1.0"/>
  </g>
</svg>
