<?xml version="1.0" encoding="UTF-8" standalone="no"?>
<svg xmlns:xlink="http://www.w3.org/1999/xlink" height="86.75px" width="166.5px" xmlns="http://www.w3.org/2000/svg">
  <g transform="matrix(1.0, 0.0, 0.0, 1.0, 0.0, 0.0)">
    <path d="M4.8 6.25 L161.8 6.25 161.8 10.25 4.8 10.25 4.8 6.25" fill="#1d1d1d" fill-rule="evenodd" stroke="none"/>
    <path d="M4.8 16.25 L161.8 16.25 161.8 20.25 4.8 20.25 4.8 16.25" fill="#1d1d1d" fill-rule="evenodd" stroke="none"/>
    <path d="M4.8 26.25 L161.8 26.25 161.8 30.25 4.8 30.25 4.8 26.25" fill="#1d1d1d" fill-rule="evenodd" stroke="none"/>
    <path d="M4.8 36.25 L161.8 36.25 161.8 40.25 4.8 40.25 4.8 36.25" fill="#1d1d1d" fill-rule="evenodd" stroke="none"/>
    <path d="M4.8 46.25 L161.8 46.25 161.8 50.25 4.8 50.25 4.8 46.25" fill="#1d1d1d" fill-rule="evenodd" stroke="none"/>
    <path d="M4.8 56.25 L161.8 56.25 161.8 60.25 4.8 60.25 4.8 56.25" fill="#1d1d1d" fill-rule="evenodd" stroke="none"/>
    <path d="M4.8 66.25 L161.8 66.25 161.8 70.25 4.8 70.25 4.8 66.25" fill="#1d1d1d" fill-rule="evenodd" stroke="none"/>
    <path d="M4.8 76.25 L161.8 76.25 161.8 80.25 4.8 80.25 4.8 76.25" fill="#1d1d1d" fill-rule="evenodd" stroke="none"/>
    <path d="M4.75 3.75 L161.75 3.75 161.75 7.75 4.75 7.75 4.75 3.75" fill="#000000" fill-rule="evenodd" stroke="none"/>
    <path d="M4.75 13.75 L161.75 13.75 161.75 17.75 4.75 17.75 4.75 13.75" fill="#000000" fill-rule="evenodd" stroke="none"/>
    <path d="M4.75 23.75 L161.75 23.75 161.75 27.75 4.75 27.75 4.75 23.75" fill="#000000" fill-rule="evenodd" stroke="none"/>
    <path d="M4.75 33.75 L161.75 33.75 161.75 37.75 4.75 37.75 4.75 33.75" fill="#000000" fill-rule="evenodd" stroke="none"/>
    <path d="M4.75 43.75 L161.75 43.75 161.75 47.75 4.75 47.75 4.75 43.75" fill="#000000" fill-rule="evenodd" stroke="none"/>
    <path d="M4.75 53.75 L161.75 53.75 161.75 57.75 4.75 57.75 4.75 53.75" fill="#000000" fill-rule="evenodd" stroke="none"/>
    <path d="M4.75 63.75 L161.75 63.75 161.75 67.75 4.75 67.75 4.75 63.75" fill="#000000" fill-rule="evenodd" stroke="none"/>
    <path d="M4.75 73.75 L161.75 73.75 161.75 77.75 4.75 77.75 4.75 73.75" fill="#000000" fill-rule="evenodd" stroke="none"/>
    <path d="M84.8 3.7 L84.8 80.2 80.8 80.2 80.8 3.7 84.8 3.7" fill="#1d1d1d" fill-rule="evenodd" stroke="none"/>
    <path d="M4.75 10.0 L161.75 10.0 161.75 14.0 4.75 14.0 4.75 10.0" fill="#333333" fill-rule="evenodd" stroke="none"/>
    <path d="M4.75 20.0 L161.75 20.0 161.75 24.0 4.75 24.0 4.75 20.0" fill="#333333" fill-rule="evenodd" stroke="none"/>
    <path d="M4.75 30.0 L161.75 30.0 161.75 34.0 4.75 34.0 4.75 30.0" fill="#333333" fill-rule="evenodd" stroke="none"/>
    <path d="M4.75 40.0 L161.75 40.0 161.75 44.0 4.75 44.0 4.75 40.0" fill="#333333" fill-rule="evenodd" stroke="none"/>
    <path d="M4.75 50.0 L161.75 50.0 161.75 54.0 4.75 54.0 4.75 50.0" fill="#333333" fill-rule="evenodd" stroke="none"/>
    <path d="M4.75 60.0 L161.75 60.0 161.75 64.0 4.75 64.0 4.75 60.0" fill="#333333" fill-rule="evenodd" stroke="none"/>
    <path d="M4.75 70.0 L161.75 70.0 161.75 74.0 4.75 74.0 4.75 70.0" fill="#333333" fill-rule="evenodd" stroke="none"/>
    <path d="M4.75 80.0 L161.75 80.0 161.75 84.0 4.75 84.0 4.75 80.0" fill="#333333" fill-rule="evenodd" stroke="none"/>
    <path d="M42.25 41.75 Q42.25 58.55 54.1 70.4 65.95 82.25 82.75 82.25 99.55 82.25 111.4 70.4 123.25 58.55 123.25 41.75 123.25 24.95 111.4 13.1 99.55 1.25 82.75 1.25 65.95 1.25 54.1 13.1 42.25 24.95 42.25 41.75 M0.0 0.0 L166.5 0.0 166.5 86.75 0.0 86.75 0.0 0.0" fill="#333333" fill-rule="evenodd" stroke="none"/>
  </g>
</svg>
