<?xml version="1.0" encoding="UTF-8" standalone="no"?>
<svg xmlns:xlink="http://www.w3.org/1999/xlink" height="8.55px" width="30.05px" xmlns="http://www.w3.org/2000/svg">
  <g transform="matrix(1.0, 0.0, 0.0, 1.0, 0.0, 0.0)">
    <path d="M2.0 3.15 L2.0 1.85 3.1 1.85 4.15 1.9 4.3 1.95 4.35 2.25 4.35 2.5 3.75 2.5 2.65 2.5 2.65 3.15 2.5 3.15 2.0 3.15 M1.2 7.8 L2.0 7.8 2.0 4.8 2.25 4.8 3.0 4.9 3.1 4.95 3.5 5.5 2.9 5.45 2.65 5.45 2.65 8.45 1.2 8.45 1.2 7.8 M5.45 7.8 L6.95 7.8 6.1 6.4 5.55 5.55 5.9 5.9 6.75 7.05 7.6 8.45 5.9 8.45 5.45 7.8 M5.3 5.3 L5.25 5.25 4.8 4.85 4.7 4.75 4.6 4.65 Q5.45 4.5 5.9 4.0 6.4 3.45 6.4 2.65 L6.15 1.6 6.7 2.15 7.0 2.75 6.9 3.75 6.9 4.1 6.55 4.65 5.3 5.3 M8.8 7.3 Q9.65 7.9 10.9 7.9 12.5 7.9 13.45 6.95 14.4 5.95 14.4 4.25 14.4 2.75 13.7 1.8 L14.1 2.15 Q14.85 2.9 15.0 4.15 L15.0 5.65 Q14.85 6.85 14.1 7.6 13.15 8.55 11.55 8.55 9.95 8.55 9.05 7.6 L8.8 7.3 M11.95 2.0 L12.2 2.5 11.55 2.4 Q10.65 2.4 10.1 3.0 9.55 3.65 9.55 4.85 9.55 5.6 9.8 6.15 L9.4 5.95 Q8.9 5.35 8.9 4.2 8.9 3.0 9.45 2.35 10.0 1.75 10.9 1.75 L11.95 2.0 M19.15 2.5 L18.45 2.5 17.65 2.5 17.65 3.0 17.4 3.0 17.0 3.0 17.0 1.85 17.8 1.85 19.05 1.85 19.2 1.9 19.2 2.15 19.15 2.5 M20.95 1.6 L21.05 1.65 21.6 2.25 21.85 3.1 21.55 4.0 21.1 4.5 20.7 4.25 20.65 4.15 20.4 3.9 20.9 3.35 21.2 2.45 20.95 1.6 M21.35 4.9 L21.85 5.3 Q22.2 5.75 22.2 6.35 L21.95 7.35 21.35 8.05 20.35 8.4 18.6 8.45 16.2 8.45 16.2 7.8 17.95 7.8 19.7 7.75 20.7 7.4 21.3 6.7 21.55 5.7 21.35 4.9 M19.5 5.4 L18.8 5.35 17.65 5.35 17.65 6.1 17.0 6.1 17.0 4.7 18.15 4.7 19.45 4.8 19.5 5.15 19.5 5.4 M28.7 1.8 L29.1 2.15 Q30.05 3.15 30.05 4.9 30.05 6.6 29.1 7.6 28.15 8.55 26.55 8.55 24.95 8.55 24.05 7.6 L23.8 7.3 Q24.65 7.9 25.9 7.9 27.5 7.9 28.45 6.95 29.4 5.95 29.4 4.25 29.4 2.75 28.7 1.8 M26.95 2.0 L27.2 2.5 26.55 2.4 Q25.65 2.4 25.1 3.0 24.55 3.65 24.55 4.85 L24.8 6.1 24.4 5.95 Q23.9 5.35 23.9 4.2 23.9 3.0 24.45 2.35 25.0 1.75 25.9 1.75 L26.95 2.0" fill="#000000" fill-rule="evenodd" stroke="none"/>
    <path d="M2.0 3.15 L2.5 3.15 2.65 3.15 3.8 3.1 4.2 2.8 4.35 2.5 4.35 2.25 4.3 1.95 4.7 2.15 4.9 2.6 4.9 2.75 4.75 3.3 4.35 3.6 3.05 3.65 2.0 3.65 2.0 3.15 M3.5 5.5 L3.1 4.95 3.45 5.2 3.75 5.6 4.2 6.25 4.9 7.3 4.7 7.3 3.65 5.75 3.5 5.5 M4.8 4.85 L4.5 4.65 4.6 4.65 4.7 4.75 4.8 4.85 M5.5 0.95 L5.25 0.85 3.55 0.65 0.55 0.65 0.55 7.3 0.0 7.3 0.0 0.15 3.0 0.15 4.7 0.35 5.5 0.95 M13.0 1.1 Q12.15 0.5 10.9 0.5 L9.35 0.8 8.45 1.45 7.75 2.45 Q7.45 3.15 7.45 4.25 7.45 5.85 8.3 6.85 L7.85 6.45 Q7.0 5.55 6.9 4.1 L6.9 3.75 7.0 2.75 7.2 1.95 7.9 0.95 8.8 0.3 10.35 0.0 Q11.95 0.0 12.9 1.0 L13.0 1.1 M11.95 2.0 L12.35 2.35 12.6 2.65 12.9 4.2 Q12.9 5.45 12.35 6.05 11.8 6.7 10.9 6.7 L9.95 6.45 9.5 6.05 9.4 5.95 9.8 6.15 10.35 6.2 Q11.25 6.2 11.8 5.55 12.35 4.95 12.35 3.7 L12.2 2.5 11.95 2.0 M17.65 3.0 L18.4 2.95 19.0 2.7 19.15 2.5 19.2 2.15 19.2 1.9 19.6 2.1 19.75 2.65 19.55 3.2 18.95 3.45 17.95 3.5 17.0 3.5 17.0 3.0 17.4 3.0 17.65 3.0 M15.0 4.15 L15.0 0.15 17.85 0.15 19.1 0.2 19.85 0.5 20.3 0.95 19.65 0.7 18.4 0.65 15.55 0.65 15.55 7.3 15.0 7.3 15.0 5.65 15.0 4.15 M17.65 6.1 L17.75 6.1 18.75 6.05 19.3 5.75 19.5 5.4 19.5 5.15 19.45 4.8 19.9 5.1 20.05 5.65 19.85 6.25 19.3 6.55 18.3 6.6 17.0 6.6 17.0 6.1 17.65 6.1 M23.3 6.85 L22.85 6.45 Q21.9 5.45 21.9 3.75 21.9 2.65 22.2 1.95 L22.9 0.95 Q23.3 0.5 23.8 0.3 L25.35 0.0 Q26.95 0.0 27.9 1.0 L28.0 1.1 Q27.15 0.5 25.9 0.5 L24.35 0.8 Q23.85 1.0 23.45 1.45 L22.75 2.45 Q22.45 3.15 22.45 4.25 22.45 5.85 23.3 6.85 M20.4 3.9 L20.65 4.15 20.7 4.25 20.15 4.0 20.4 3.9 M27.2 2.5 L26.95 2.0 27.35 2.35 Q27.9 2.95 27.9 4.2 27.9 5.45 27.35 6.05 26.8 6.7 25.9 6.7 25.05 6.7 24.5 6.05 L24.4 5.95 24.8 6.1 25.35 6.2 Q26.25 6.2 26.8 5.55 27.35 4.95 27.35 3.7 L27.2 2.5" fill="#999999" fill-rule="evenodd" stroke="none"/>
    <path d="M4.3 1.95 L4.15 1.9 3.1 1.85 2.0 1.85 2.0 3.15 2.0 3.65 3.05 3.65 4.35 3.6 4.75 3.3 4.9 2.75 4.9 2.6 4.7 2.15 4.3 1.95 M3.1 4.95 L3.0 4.9 2.25 4.8 2.0 4.8 2.0 7.8 1.2 7.8 0.55 7.8 0.55 7.3 0.55 0.65 3.55 0.65 5.25 0.85 5.5 0.95 6.05 1.5 6.15 1.6 6.4 2.65 Q6.4 3.45 5.9 4.0 5.45 4.5 4.6 4.65 L4.5 4.65 4.8 4.85 5.25 5.25 5.3 5.3 5.55 5.55 6.1 6.4 6.95 7.8 5.45 7.8 5.25 7.8 4.9 7.3 4.2 6.25 3.75 5.6 3.45 5.2 3.1 4.95 M8.3 6.85 Q7.45 5.85 7.45 4.25 7.45 3.15 7.75 2.45 L8.45 1.45 9.35 0.8 10.9 0.5 Q12.15 0.5 13.0 1.1 L13.45 1.5 13.7 1.8 Q14.4 2.75 14.4 4.25 14.4 5.95 13.45 6.95 12.5 7.9 10.9 7.9 9.65 7.9 8.8 7.3 L8.4 6.95 8.3 6.85 M9.4 5.95 L9.5 6.05 9.95 6.45 10.9 6.7 Q11.8 6.7 12.35 6.05 12.9 5.45 12.9 4.2 L12.6 2.65 12.35 2.35 11.95 2.0 10.9 1.75 Q10.0 1.75 9.45 2.35 8.9 3.0 8.9 4.2 8.9 5.35 9.4 5.95 M17.0 3.0 L17.0 3.5 17.95 3.5 18.95 3.45 19.55 3.2 19.75 2.65 19.6 2.1 19.2 1.9 19.05 1.85 17.8 1.85 17.0 1.85 17.0 3.0 M20.3 0.95 L20.4 1.0 20.95 1.6 21.2 2.45 20.9 3.35 20.4 3.9 20.15 4.0 20.7 4.25 21.1 4.5 21.2 4.65 21.35 4.9 21.55 5.7 21.3 6.7 20.7 7.4 19.7 7.75 17.95 7.8 16.2 7.8 15.55 7.8 15.55 7.3 15.55 0.65 18.4 0.65 19.65 0.7 20.3 0.95 M17.0 6.1 L17.0 6.6 18.3 6.6 19.3 6.55 19.85 6.25 20.05 5.65 19.9 5.1 19.45 4.8 18.15 4.7 17.0 4.7 17.0 6.1 M23.3 6.85 Q22.45 5.85 22.45 4.25 22.45 3.15 22.75 2.45 L23.45 1.45 Q23.85 1.0 24.35 0.8 L25.9 0.5 Q27.15 0.5 28.0 1.1 L28.45 1.5 28.7 1.8 Q29.4 2.75 29.4 4.25 29.4 5.95 28.45 6.95 27.5 7.9 25.9 7.9 24.65 7.9 23.8 7.3 L23.4 6.95 23.3 6.85 M24.4 5.95 L24.5 6.05 Q25.05 6.7 25.9 6.7 26.8 6.7 27.35 6.05 27.9 5.45 27.9 4.2 27.9 2.95 27.35 2.35 L26.95 2.0 25.9 1.75 Q25.0 1.75 24.45 2.35 23.9 3.0 23.9 4.2 23.9 5.35 24.4 5.95" fill="#3f3f3f" fill-rule="evenodd" stroke="none"/>
  </g>
</svg>
