<?xml version="1.0" encoding="UTF-8" standalone="no"?>
<svg xmlns:xlink="http://www.w3.org/1999/xlink" height="8.55px" width="34.85px" xmlns="http://www.w3.org/2000/svg">
  <g transform="matrix(1.0, 0.0, 0.0, 1.0, 0.0, 0.0)">
    <path d="M2.0 3.05 L2.65 3.05 4.4 3.05 4.4 3.55 2.0 3.55 2.0 3.05 M4.9 0.65 L0.55 0.65 0.55 7.3 0.0 7.3 0.0 0.15 4.9 0.15 4.9 0.65 M11.35 7.3 L10.95 7.3 10.8 6.8 10.55 6.15 10.9 6.15 11.35 7.3 M6.1 7.3 L5.35 7.3 8.15 0.15 9.65 0.15 9.85 0.65 8.7 0.65 6.1 7.3 M9.25 2.8 L9.45 2.3 10.4 4.95 8.45 4.95 8.65 4.45 9.55 4.45 9.85 4.45 9.7 4.05 9.25 2.8 M17.65 4.15 L17.65 0.15 18.95 0.15 18.95 0.65 18.2 0.65 18.2 5.4 17.65 4.55 17.65 4.15 M17.75 7.3 L17.5 7.3 15.85 4.6 15.2 3.55 15.2 3.15 17.75 7.3 M13.85 7.3 L13.3 7.3 13.3 0.15 14.7 0.15 15.05 0.65 13.85 0.65 13.85 7.3 M22.7 6.0 L23.1 6.15 23.45 6.2 Q24.05 6.2 24.45 5.8 L25.05 4.65 26.45 5.1 26.4 5.4 25.6 5.15 25.0 6.3 Q24.6 6.7 24.0 6.7 23.25 6.7 22.75 6.1 L22.7 6.0 M25.0 2.45 L24.8 1.95 25.05 2.1 25.3 2.4 25.05 2.45 25.0 2.45 M25.9 1.0 Q25.15 0.5 24.1 0.5 22.6 0.5 21.7 1.5 20.75 2.5 20.75 4.3 20.75 5.85 21.6 6.85 L21.15 6.45 Q20.2 5.45 20.2 3.8 20.2 2.0 21.15 1.0 22.05 0.0 23.55 0.0 24.9 0.0 25.7 0.8 L25.9 1.0 M30.55 2.5 L31.95 0.15 33.65 0.15 33.35 0.65 32.5 0.65 30.85 3.45 30.45 2.75 30.55 2.5 M30.1 7.3 L29.55 7.3 29.55 4.3 26.95 0.15 28.65 0.15 28.95 0.65 27.5 0.65 30.1 4.8 30.1 7.3" fill="#999999" fill-rule="evenodd" stroke="none"/>
    <path d="M5.45 1.3 L5.45 1.85 2.0 1.85 2.0 3.05 2.0 3.55 4.4 3.55 4.95 3.55 4.95 4.2 4.95 4.75 2.0 4.75 2.0 7.8 1.2 7.8 0.55 7.8 0.55 7.3 0.55 0.65 4.9 0.65 5.45 0.65 5.45 1.3 M11.9 7.8 L11.5 7.8 11.35 7.3 10.9 6.15 10.55 6.15 8.0 6.15 7.45 7.8 6.8 7.8 5.9 7.8 6.1 7.3 8.7 0.65 9.85 0.65 10.2 0.65 10.5 1.3 13.1 7.8 11.9 7.8 M8.65 4.45 L8.45 4.95 10.4 4.95 9.45 2.3 9.25 2.8 8.65 4.45 M18.95 0.65 L19.5 0.65 19.5 1.3 19.5 7.8 18.3 7.8 18.05 7.8 17.75 7.3 15.2 3.15 15.2 3.55 15.2 7.8 14.5 7.8 13.85 7.8 13.85 7.3 13.85 0.65 15.05 0.65 15.25 0.65 15.65 1.3 17.65 4.55 18.2 5.4 18.2 0.65 18.95 0.65 M24.8 1.95 L24.05 1.75 Q23.25 1.75 22.75 2.35 22.25 2.9 22.25 4.2 22.25 5.45 22.7 6.0 L22.75 6.1 Q23.25 6.7 24.0 6.7 24.6 6.7 25.0 6.3 L25.6 5.15 26.4 5.4 27.0 5.6 26.9 6.0 25.95 7.35 Q25.2 7.9 24.05 7.9 22.9 7.9 22.1 7.3 L21.7 6.95 21.6 6.85 Q20.75 5.85 20.75 4.3 20.75 2.5 21.7 1.5 22.6 0.5 24.1 0.5 25.15 0.5 25.9 1.0 L26.25 1.3 26.6 1.7 27.0 2.6 25.85 2.9 25.55 2.95 25.45 2.55 25.3 2.4 25.05 2.1 24.8 1.95 M33.35 0.65 L34.2 0.65 33.8 1.3 31.55 4.8 31.55 7.8 30.75 7.8 30.1 7.8 30.1 7.3 30.1 4.8 27.5 0.65 28.95 0.65 29.2 0.65 29.6 1.3 30.45 2.75 30.85 3.45 32.5 0.65 33.35 0.65" fill="#3f3f3f" fill-rule="evenodd" stroke="none"/>
    <path d="M2.0 3.05 L2.0 1.85 5.45 1.85 5.45 1.3 6.1 1.3 6.1 2.5 2.65 2.5 2.65 3.05 2.0 3.05 M1.2 7.8 L2.0 7.8 2.0 4.75 4.95 4.75 4.95 4.2 5.6 4.2 5.6 5.4 2.65 5.4 2.65 8.45 1.2 8.45 1.2 7.8 M10.5 1.3 L10.85 1.3 13.75 8.45 12.15 8.45 11.9 7.8 13.1 7.8 10.5 1.3 M10.8 6.8 L8.65 6.8 8.1 8.45 6.55 8.45 6.8 7.8 7.45 7.8 8.0 6.15 10.55 6.15 10.8 6.8 M9.25 2.8 L9.7 4.05 9.55 4.45 8.65 4.45 9.25 2.8 M15.65 1.3 L15.9 1.3 17.65 4.15 17.65 4.55 15.65 1.3 M19.5 1.3 L20.15 1.3 20.15 8.45 18.7 8.45 18.3 7.8 19.5 7.8 19.5 1.3 M15.85 4.6 L15.85 8.45 14.5 8.45 14.5 7.8 15.2 7.8 15.2 3.55 15.85 4.6 M22.7 6.0 Q22.25 5.45 22.25 4.2 22.25 2.9 22.75 2.35 23.25 1.75 24.05 1.75 L24.8 1.95 25.0 2.45 24.7 2.4 Q23.9 2.4 23.4 3.0 22.9 3.55 22.9 4.85 L23.1 6.15 22.7 6.0 M25.3 2.4 L25.45 2.55 25.05 2.45 25.3 2.4 M25.85 2.9 L27.0 2.6 26.6 1.7 26.9 1.95 27.65 3.25 26.2 3.6 25.85 2.9 M22.1 7.3 Q22.9 7.9 24.05 7.9 25.2 7.9 25.95 7.35 L26.9 6.0 27.65 6.25 Q27.35 7.45 26.6 8.0 25.85 8.55 24.7 8.55 23.25 8.55 22.35 7.6 L22.1 7.3 M29.6 1.3 L29.85 1.3 30.55 2.5 30.45 2.75 29.6 1.3 M33.8 1.3 L34.85 1.3 32.2 5.45 32.2 8.45 30.75 8.45 30.75 7.8 31.55 7.8 31.55 4.8 33.8 1.3" fill="#000000" fill-rule="evenodd" stroke="none"/>
  </g>
</svg>
