<?xml version="1.0" encoding="UTF-8" standalone="no"?>
<svg xmlns:xlink="http://www.w3.org/1999/xlink" height="15.15px" width="35.1px" xmlns="http://www.w3.org/2000/svg">
  <g transform="matrix(1.0, 0.0, 0.0, 1.0, 0.5, 4.85)">
    <path d="M34.1 2.0 L34.1 7.8 Q34.1 9.8 32.1 9.8 L2.0 9.8 Q0.0 9.8 0.0 7.8 L0.0 2.0 Q0.0 0.0 2.0 0.0 L32.1 0.0 Q34.1 0.0 34.1 2.0" fill="#121212" fill-rule="evenodd" stroke="none"/>
    <path d="M34.1 2.0 Q34.1 0.0 32.1 0.0 L2.0 0.0 Q0.0 0.0 0.0 2.0 L0.0 7.8" fill="none" stroke="#000000" stroke-linecap="round" stroke-linejoin="round" stroke-width="1.0"/>
    <path d="M0.0 7.8 Q0.0 9.8 2.0 9.8 L32.1 9.8 Q34.1 9.8 34.1 7.8 L34.1 2.0 Z" fill="none" stroke="#505050" stroke-linecap="round" stroke-linejoin="round" stroke-width="1.0"/>
    <path d="M14.0 8.25 Q14.0 9.25 13.0 9.25 L1.55 9.25 Q0.55 9.25 0.6 8.25 L0.6 3.75 Q0.55 2.75 1.55 2.75 L13.0 2.75 Q14.0 2.75 14.0 3.75 L14.0 8.25" fill="#000000" fill-rule="evenodd" stroke="none"/>
    <path d="M11.9 -3.85 L12.05 -3.8 12.4 -3.7 13.1 -3.5 Q14.1 -3.5 14.1 -2.5 L14.1 5.15 Q14.1 6.15 13.1 6.15 7.3 4.0 1.55 6.15 0.55 6.15 0.55 5.15 L0.55 -2.5 Q0.55 -3.5 1.55 -3.5 L2.9 -3.85 5.25 -4.25 7.45 -4.35 7.75 -4.35 9.75 -4.2 9.95 -4.2 11.85 -3.85 11.9 -3.85 11.8 5.0 11.9 -3.85 M9.7 4.55 L9.75 -4.2 9.7 4.55 M5.25 4.65 L5.25 -3.95 5.25 4.65 M7.45 4.55 L7.45 -4.35 7.45 4.55 M3.0 4.9 L3.0 -3.55 3.0 4.9 M13.8 -2.5 L13.8 5.15 13.8 -2.5 M0.95 5.15 L0.95 -2.5 0.95 5.15" fill="#111111" fill-rule="evenodd" stroke="none"/>
    <path d="M11.9 -3.85 L11.8 5.0 M13.8 5.15 L13.8 -2.5" fill="none" stroke="#373737" stroke-linecap="round" stroke-linejoin="round" stroke-width="1.0"/>
    <path d="M9.75 -4.2 L9.7 4.55 M7.45 -4.35 L7.45 4.55 M5.25 -3.95 L5.25 4.65" fill="none" stroke="#505050" stroke-linecap="round" stroke-linejoin="round" stroke-width="1.0"/>
    <path d="M3.0 -3.55 L3.0 4.9 M0.95 -2.5 L0.95 5.15" fill="none" stroke="#5c5c5c" stroke-linecap="round" stroke-linejoin="round" stroke-width="1.0"/>
  </g>
</svg>
