<?xml version="1.0" encoding="UTF-8" standalone="no"?>
<svg xmlns:xlink="http://www.w3.org/1999/xlink" height="42.0px" width="120.0px" xmlns="http://www.w3.org/2000/svg">
  <g transform="matrix(1.0, 0.0, 0.0, 1.0, 0.0, 0.0)">
    <path d="M119.6 41.1 L0.5 41.1 0.5 3.65 Q0.5 0.45 3.4 0.45 L116.75 0.65 118.85 0.95 Q119.75 1.55 119.75 3.8 L119.6 41.1" fill="#a6c4b1" fill-rule="evenodd" stroke="none"/>
    <path d="M117.75 0.0 Q120.0 0.0 120.0 2.2 L120.0 41.45 Q120.0 42.0 119.45 42.0 L0.5 42.0 Q0.0 42.0 0.0 41.45 L0.0 2.2 Q0.0 0.0 2.2 0.0 L117.75 0.0 M118.95 29.45 L118.95 2.2 Q118.95 1.0 117.75 1.0 L2.2 1.0 Q1.0 1.0 1.0 2.2 L1.0 29.45 5.3 29.45 Q10.45 38.65 20.85 38.65 31.35 38.65 36.4 29.45 L118.95 29.45" fill="#000000" fill-rule="evenodd" stroke="none"/>
    <path d="M30.5 9.9 Q34.5 13.85 34.5 19.5 L34.5 19.55 Q34.5 25.2 30.5 29.15 26.5 33.15 20.85 33.15 15.25 33.15 11.25 29.15 7.25 25.2 7.25 19.55 7.2 13.9 11.2 9.9 15.2 5.9 20.85 5.9 26.5 5.9 30.5 9.9" fill="#ffffff" fill-rule="evenodd" stroke="none"/>
    <path d="M20.9 6.7 Q15.6 6.7 11.9 10.45 8.05 14.4 8.05 19.55 8.05 24.75 11.85 28.55 15.7 32.3 20.9 32.3 26.15 32.3 30.0 28.5 33.7 24.9 33.7 19.55 33.7 14.2 29.95 10.45 26.2 6.7 20.9 6.7 M27.6 18.0 Q27.0 16.75 25.9 16.75 23.8 16.75 23.8 19.5 23.8 22.3 25.9 22.3 27.3 22.3 27.8 20.95 L29.75 21.95 Q28.35 24.4 25.65 24.4 23.6 24.4 22.3 23.1 21.05 21.85 21.05 19.55 21.05 17.25 22.3 16.0 23.6 14.65 25.6 14.65 28.45 14.65 29.7 16.95 L27.6 18.0 M31.95 8.4 Q36.5 13.05 36.5 19.55 36.5 26.1 32.0 30.5 27.3 35.15 20.85 35.15 14.45 35.15 9.85 30.55 5.25 25.95 5.25 19.55 5.25 13.15 9.85 8.4 14.35 3.9 20.85 3.9 27.4 3.9 31.95 8.4 M16.55 14.65 Q19.4 14.65 20.7 16.95 L18.6 18.0 Q18.1 16.75 16.85 16.75 14.8 16.75 14.8 19.5 14.8 22.3 16.85 22.3 18.2 22.3 18.8 20.95 L20.75 21.95 Q19.3 24.4 16.65 24.4 14.55 24.4 13.25 23.1 12.0 21.85 12.0 19.55 12.0 17.25 13.3 16.0 14.6 14.65 16.55 14.65" fill="#000000" fill-rule="evenodd" stroke="none"/>
    <path d="M51.75 4.45 Q56.2 4.45 59.35 7.6 62.5 10.75 62.5 15.2 62.5 19.65 59.35 22.8 56.2 25.95 51.75 25.95 47.3 25.95 44.15 22.8 41.0 19.65 41.0 15.2 41.0 10.75 44.15 7.6 47.3 4.45 51.75 4.45" fill="#ffffff" fill-rule="evenodd" stroke="none"/>
    <path d="M54.1 11.35 Q54.85 11.35 54.85 12.1 L54.85 16.85 53.5 16.85 53.5 22.45 49.95 22.45 49.95 16.85 48.6 16.85 48.6 12.1 Q48.6 11.35 49.35 11.35 L54.1 11.35" fill="#000000" fill-rule="evenodd" stroke="none"/>
    <path d="M51.75 7.45 Q53.35 7.45 53.35 9.1 53.35 10.7 51.75 10.7 50.1 10.7 50.1 9.1 50.1 7.45 51.75 7.45" fill="#000000" fill-rule="evenodd" stroke="none"/>
    <path d="M51.7 3.35 Q56.55 3.35 59.95 6.75 63.3 10.05 63.3 14.95 63.3 19.8 60.0 23.1 56.5 26.55 51.7 26.55 47.05 26.55 43.55 23.15 40.15 19.75 40.15 14.95 40.15 10.15 43.55 6.75 46.95 3.35 51.7 3.35 M45.05 21.65 Q47.85 24.45 51.75 24.45 55.65 24.45 58.5 21.6 61.25 18.95 61.25 14.95 61.25 11.0 58.45 8.25 55.65 5.45 51.75 5.45 47.85 5.45 45.05 8.25 42.2 11.1 42.2 14.95 42.2 18.8 45.05 21.65" fill="#000000" fill-rule="evenodd" stroke="none"/>
    <path d="M48.1 33.85 L46.7 33.85 46.7 35.4 48.2 35.4 48.85 35.2 49.1 34.6 49.0 34.25 48.75 34.0 48.45 33.9 48.1 33.85 M50.35 33.6 L50.5 34.35 50.25 35.2 49.6 35.75 Q50.2 35.9 50.5 36.35 L50.8 37.4 50.6 38.3 50.1 38.9 49.35 39.25 48.45 39.35 45.25 39.35 45.25 32.7 48.4 32.7 49.25 32.8 49.9 33.1 50.35 33.6 M48.3 36.4 L46.7 36.4 46.7 38.2 48.3 38.2 48.7 38.15 49.05 38.05 49.25 37.75 49.35 37.35 49.05 36.6 48.3 36.4" fill="#ffffff" fill-rule="evenodd" stroke="none"/>
    <path d="M51.05 32.7 L52.7 32.7 54.25 35.35 55.8 32.7 57.4 32.7 54.95 36.8 54.95 39.35 53.5 39.35 53.5 36.75 51.05 32.7" fill="#ffffff" fill-rule="evenodd" stroke="none"/>
    <path d="M98.85 33.85 L98.6 34.1 98.5 34.45 98.6 34.75 98.9 35.0 101.0 35.6 101.65 35.9 102.2 36.45 102.45 37.4 102.3 38.2 101.75 38.9 100.9 39.35 99.7 39.5 98.65 39.35 Q98.05 39.15 97.75 38.95 L97.1 38.2 96.9 37.15 98.3 37.15 98.4 37.7 98.75 38.1 99.2 38.3 100.15 38.35 100.6 38.2 100.9 37.95 101.05 37.55 100.85 37.1 100.4 36.85 99.8 36.65 98.35 36.2 97.75 35.85 97.3 35.35 97.1 34.55 97.3 33.7 97.9 33.05 Q98.4 32.75 98.7 32.7 L99.6 32.55 100.6 32.7 Q100.95 32.75 101.45 33.05 L102.0 33.7 102.25 34.7 100.8 34.7 100.7 34.2 100.4 33.9 100.0 33.75 99.5 33.7 99.15 33.75 98.85 33.85" fill="#ffffff" fill-rule="evenodd" stroke="none"/>
    <path d="M106.7 36.8 L105.85 34.35 105.0 36.8 106.7 36.8 M106.6 32.7 L109.1 39.35 107.6 39.35 107.1 37.85 104.6 37.85 104.1 39.35 102.6 39.35 105.15 32.7 106.6 32.7" fill="#ffffff" fill-rule="evenodd" stroke="none"/>
    <path d="M72.5 32.7 L75.25 37.15 75.3 37.15 75.3 32.7 76.65 32.7 76.65 39.35 75.2 39.35 72.45 34.9 72.4 34.9 72.4 39.35 71.05 39.35 71.05 32.7 72.5 32.7" fill="#ffffff" fill-rule="evenodd" stroke="none"/>
    <path d="M82.15 34.5 L81.85 34.1 81.4 33.85 80.9 33.8 80.05 34.0 Q79.7 34.2 79.5 34.5 L79.2 35.2 79.1 36.05 79.2 36.85 79.5 37.6 80.05 38.1 80.9 38.25 Q81.6 38.25 81.95 37.85 82.35 37.5 82.4 36.8 L83.8 36.8 83.5 37.9 82.9 38.75 82.0 39.3 80.9 39.5 79.5 39.25 78.5 38.5 Q78.1 38.1 77.85 37.4 L77.65 36.05 77.85 34.7 Q78.05 34.05 78.5 33.55 L79.5 32.85 80.9 32.55 81.9 32.7 Q82.35 32.8 82.8 33.2 L83.45 33.9 83.75 34.95 82.35 34.95 82.15 34.5" fill="#ffffff" fill-rule="evenodd" stroke="none"/>
    <path d="M114.55 14.95 Q114.55 19.35 111.45 22.45 108.35 25.55 104.0 25.55 99.6 25.55 96.5 22.45 93.4 19.35 93.4 14.95 93.4 10.55 96.5 7.45 99.55 4.35 103.95 4.35 108.35 4.35 111.45 7.45 114.55 10.55 114.55 14.95" fill="#ffffff" fill-rule="evenodd" stroke="none"/>
    <path d="M115.5 14.95 Q115.5 19.8 112.2 23.1 108.7 26.55 103.9 26.55 99.15 26.55 95.75 23.15 92.3 19.7 92.3 14.95 92.3 10.25 95.75 6.7 99.1 3.35 103.9 3.35 108.75 3.35 112.15 6.7 115.5 10.05 115.5 14.95 M110.7 21.6 Q113.4 19.0 113.4 14.95 113.4 10.95 110.65 8.25 107.85 5.45 103.9 5.45 100.0 5.45 97.25 8.25 94.4 11.1 94.4 14.95 94.4 18.8 97.2 21.6 100.05 24.45 103.9 24.45 107.8 24.45 110.7 21.6" fill="#000000" fill-rule="evenodd" stroke="none"/>
    <path d="M108.2 10.65 Q109.8 12.4 109.8 15.1 109.8 17.75 108.15 19.5 106.45 21.3 103.8 21.3 99.25 21.3 98.65 16.8 L101.6 16.8 Q101.75 18.9 104.15 18.9 106.85 18.9 106.85 15.0 106.85 11.25 104.2 11.25 101.85 11.25 101.6 13.3 L102.45 13.3 100.15 15.6 97.85 13.3 98.75 13.3 Q99.45 8.85 103.85 8.85 106.55 8.85 108.2 10.65" fill="#000000" fill-rule="evenodd" stroke="none"/>
    <path d="M87.8 14.95 Q87.8 19.1 84.85 22.0 81.95 24.95 77.8 24.95 73.7 24.95 70.75 22.05 67.85 19.15 67.85 15.0 L67.85 14.95 Q67.85 10.85 70.75 7.9 73.7 5.0 77.8 5.0 81.9 5.0 84.85 7.9 87.75 10.8 87.8 14.95" fill="#ffffff" fill-rule="evenodd" stroke="none"/>
    <path d="M86.05 6.75 Q89.4 10.05 89.4 14.95 89.4 19.9 86.1 23.1 82.6 26.55 77.8 26.55 73.15 26.55 69.65 23.15 66.2 19.7 66.2 14.95 66.2 10.2 69.65 6.75 73.0 3.35 77.8 3.35 82.65 3.35 86.05 6.75 M84.6 21.6 L86.2 19.55 80.2 16.9 75.95 16.9 Q76.2 17.85 76.6 18.25 77.55 19.25 79.1 19.25 L81.3 18.75 81.8 20.9 Q80.6 21.65 78.75 21.65 75.75 21.65 74.0 19.45 73.15 18.25 72.95 16.9 L71.65 16.9 71.65 15.55 72.75 15.55 72.75 14.6 71.65 14.6 71.65 13.25 71.9 13.25 68.8 11.9 Q68.3 13.5 68.3 14.95 68.3 18.8 71.15 21.65 73.95 24.45 77.85 24.45 81.75 24.45 84.6 21.6 M87.05 17.45 L87.3 14.95 Q87.3 10.95 84.55 8.25 81.75 5.45 77.85 5.45 73.95 5.45 71.15 8.25 L69.85 9.85 73.65 11.5 74.3 10.6 Q76.05 8.6 78.8 8.6 80.5 8.6 81.7 9.2 L81.15 11.4 79.0 10.95 Q77.5 10.95 76.6 12.0 L76.2 12.65 77.55 13.25 80.85 13.25 80.85 14.6 80.65 14.6 87.05 17.45" fill="#000000" fill-rule="evenodd" stroke="none"/>
  </g>
</svg>
