<?xml version="1.0" encoding="UTF-8" standalone="no"?>
<svg xmlns:xlink="http://www.w3.org/1999/xlink" height="364.9px" width="538.0px" xmlns="http://www.w3.org/2000/svg">
  <g transform="matrix(1.0, 0.0, 0.0, 1.0, 6.0, 8.0)">
    <path d="M532.0 -8.0 L532.0 356.9 -6.0 356.9 -6.0 -8.0 532.0 -8.0" fill="#444444" fill-rule="evenodd" stroke="none"/>
    <path d="M253.0 64.0 Q259.0 64.0 259.0 70.0 L259.0 278.0 Q259.0 284.0 253.0 284.0 L6.0 284.0 Q0.0 284.0 0.0 278.0 L0.0 70.0 Q0.0 64.0 6.0 64.0 L253.0 64.0 M522.0 64.0 Q528.0 64.0 528.0 70.0 L528.0 278.0 Q528.0 284.0 522.0 284.0 L275.0 284.0 Q269.0 284.0 269.0 278.0 L269.0 70.0 Q269.0 64.0 275.0 64.0 L522.0 64.0 M138.0 -1.0 L385.0 -1.0 Q391.0 -1.0 391.0 5.0 L391.0 51.95 Q391.0 57.95 385.0 57.95 L138.0 57.95 Q132.0 57.95 132.0 51.95 L132.0 5.0 Q132.0 -1.0 138.0 -1.0" fill="#ff0000" fill-rule="evenodd" stroke="none"/>
  </g>
</svg>
